<svg xmlns="http://www.w3.org/2000/svg" width="1920" height="1080"><path d="M1003,622L942,468L756,728Z" fill="#158475" stroke="#158475" stroke-width="1.51"/><path d="M756,728L916,843L1003,622Z" fill="#158b7a" stroke="#158b7a" stroke-width="1.51"/><path d="M942,468L732,337L756,728Z" fill="#147d6f" stroke="#147d6f" stroke-width="1.51"/><path d="M732,337L514,605L756,728Z" fill="#137c6e" stroke="#137c6e" stroke-width="1.51"/><path d="M756,728L707,941L916,843Z" fill="#14907d" stroke="#14907d" stroke-width="1.51"/><path d="M1003,622L1273,345L942,468Z" fill="#158475" stroke="#158475" stroke-width="1.51"/><path d="M916,843L1186,743L1003,622Z" fill="#168f7e" stroke="#168f7e" stroke-width="1.51"/><path d="M469,941L707,941L756,728Z" fill="#138f7c" stroke="#138f7c" stroke-width="1.51"/><path d="M916,843L1193,865L1186,743Z" fill="#169784" stroke="#169784" stroke-width="1.51"/><path d="M732,337L532,372L514,605Z" fill="#117769" stroke="#117769" stroke-width="1.51"/><path d="M972,1095L1193,865L916,843Z" fill="#159c87" stroke="#159c87" stroke-width="1.51"/><path d="M942,468L963,153L732,337Z" fill="#137a6c" stroke="#137a6c" stroke-width="1.51"/><path d="M732,337L409,186L532,372Z" fill="#117365" stroke="#117365" stroke-width="1.51"/><path d="M1273,345L963,153L942,468Z" fill="#138070" stroke="#138070" stroke-width="1.51"/><path d="M1186,743L1273,345L1003,622Z" fill="#168b7b" stroke="#168b7b" stroke-width="1.51"/><path d="M1422,414L1273,345L1186,743Z" fill="#158e7d" stroke="#158e7d" stroke-width="1.51"/><path d="M963,153L788,98L732,337Z" fill="#117667" stroke="#117667" stroke-width="1.51"/><path d="M282,835L469,941L514,605Z" fill="#128674" stroke="#128674" stroke-width="1.51"/><path d="M514,605L469,941L756,728Z" fill="#138776" stroke="#138776" stroke-width="1.51"/><path d="M635,1095L972,1095L707,941Z" fill="#159c86" stroke="#159c86" stroke-width="1.51"/><path d="M707,941L972,1095L916,843Z" fill="#159884" stroke="#159884" stroke-width="1.51"/><path d="M469,941L635,1095L707,941Z" fill="#139580" stroke="#139580" stroke-width="1.51"/><path d="M532,372L214,345L514,605Z" fill="#107466" stroke="#107466" stroke-width="1.51"/><path d="M788,98L409,186L732,337Z" fill="#107264" stroke="#107264" stroke-width="1.51"/><path d="M1283,94L997,-46L963,153Z" fill="#107a6b" stroke="#107a6b" stroke-width="1.51"/><path d="M1526,708L1422,414L1186,743Z" fill="#159884" stroke="#159884" stroke-width="1.51"/><path d="M153,599L282,835L514,605Z" fill="#117e6d" stroke="#117e6d" stroke-width="1.51"/><path d="M469,941L511,1115L635,1095Z" fill="#129882" stroke="#129882" stroke-width="1.51"/><path d="M150,1116L511,1115L469,941Z" fill="#11957f" stroke="#11957f" stroke-width="1.51"/><path d="M1215,1399L1245,1181L972,1095Z" fill="#15b398" stroke="#15b398" stroke-width="1.51"/><path d="M788,98L655,-55L409,186Z" fill="#0f6f60" stroke="#0f6f60" stroke-width="1.51"/><path d="M963,153L997,-46L788,98Z" fill="#107466" stroke="#107466" stroke-width="1.51"/><path d="M1283,94L963,153L1273,345Z" fill="#128171" stroke="#128171" stroke-width="1.51"/><path d="M1395,106L1283,94L1273,345Z" fill="#138775" stroke="#138775" stroke-width="1.51"/><path d="M997,-46L655,-55L788,98Z" fill="#0f7162" stroke="#0f7162" stroke-width="1.51"/><path d="M210,168L214,345L409,186Z" fill="#0d6d5e" stroke="#0d6d5e" stroke-width="1.51"/><path d="M409,186L214,345L532,372Z" fill="#0f7062" stroke="#0f7062" stroke-width="1.51"/><path d="M1489,909L1526,708L1186,743Z" fill="#16a38c" stroke="#16a38c" stroke-width="1.51"/><path d="M1489,909L1186,743L1193,865Z" fill="#16a18b" stroke="#16a18b" stroke-width="1.51"/><path d="M214,345L153,599L514,605Z" fill="#117466" stroke="#117466" stroke-width="1.51"/><path d="M972,1095L1245,1181L1193,865Z" fill="#16a790" stroke="#16a790" stroke-width="1.51"/><path d="M724,1460L972,1095L635,1095Z" fill="#14a68e" stroke="#14a68e" stroke-width="1.51"/><path d="M1245,1181L1489,909L1193,865Z" fill="#16ab93" stroke="#16ab93" stroke-width="1.51"/><path d="M1283,94L1287,-115L997,-46Z" fill="#107d6c" stroke="#107d6c" stroke-width="1.51"/><path d="M1422,414L1395,106L1273,345Z" fill="#138c7a" stroke="#138c7a" stroke-width="1.51"/><path d="M1708,214L1395,106L1422,414Z" fill="#13917d" stroke="#13917d" stroke-width="1.51"/><path d="M234,-68L210,168L409,186Z" fill="#0d695b" stroke="#0d695b" stroke-width="1.51"/><path d="M-110,365L-40,695L153,599Z" fill="#0e7062" stroke="#0e7062" stroke-width="1.51"/><path d="M1245,1181L1477,1129L1489,909Z" fill="#15b59a" stroke="#15b59a" stroke-width="1.51"/><path d="M1753,706L1707,434L1526,708Z" fill="#15a48e" stroke="#15a48e" stroke-width="1.51"/><path d="M655,-55L471,-151L409,186Z" fill="#0d6b5c" stroke="#0d6b5c" stroke-width="1.51"/><path d="M707,-346L471,-151L655,-55Z" fill="#0c685a" stroke="#0c685a" stroke-width="1.51"/><path d="M1429,-71L1287,-115L1283,94Z" fill="#108270" stroke="#108270" stroke-width="1.51"/><path d="M997,-46L971,-302L655,-55Z" fill="#0f6e60" stroke="#0f6e60" stroke-width="1.51"/><path d="M511,1115L463,1352L635,1095Z" fill="#12a088" stroke="#12a088" stroke-width="1.51"/><path d="M150,1116L463,1352L511,1115Z" fill="#109d85" stroke="#109d85" stroke-width="1.51"/><path d="M150,1116L469,941L282,835Z" fill="#118e79" stroke="#118e79" stroke-width="1.51"/><path d="M-35,848L150,1116L282,835Z" fill="#108975" stroke="#108975" stroke-width="1.51"/><path d="M463,1352L724,1460L635,1095Z" fill="#12a88f" stroke="#12a88f" stroke-width="1.51"/><path d="M1245,1181L1487,1477L1477,1129Z" fill="#14c1a3" stroke="#14c1a3" stroke-width="1.51"/><path d="M1526,708L1707,434L1422,414Z" fill="#169a86" stroke="#169a86" stroke-width="1.51"/><path d="M1395,106L1429,-71L1283,94Z" fill="#118673" stroke="#118673" stroke-width="1.51"/><path d="M1753,706L1526,708L1781,911Z" fill="#15af96" stroke="#15af96" stroke-width="1.51"/><path d="M1008,1481L1215,1399L972,1095Z" fill="#14b59a" stroke="#14b59a" stroke-width="1.51"/><path d="M1708,214L1429,-71L1395,106Z" fill="#118d79" stroke="#118d79" stroke-width="1.51"/><path d="M153,599L-35,848L282,835Z" fill="#107e6d" stroke="#107e6d" stroke-width="1.51"/><path d="M-110,365L153,599L214,345Z" fill="#0e6e60" stroke="#0e6e60" stroke-width="1.51"/><path d="M724,1460L1008,1481L972,1095Z" fill="#14b197" stroke="#14b197" stroke-width="1.51"/><path d="M210,168L-3,124L214,345Z" fill="#0d695b" stroke="#0d695b" stroke-width="1.51"/><path d="M471,-151L234,-68L409,186Z" fill="#0c685a" stroke="#0c685a" stroke-width="1.51"/><path d="M1149,-272L997,-46L1287,-115Z" fill="#0f7867" stroke="#0f7867" stroke-width="1.51"/><path d="M1149,-272L971,-302L997,-46Z" fill="#0e7262" stroke="#0e7262" stroke-width="1.51"/><path d="M1781,911L1526,708L1489,909Z" fill="#15b095" stroke="#15b095" stroke-width="1.51"/><path d="M-40,695L-35,848L153,599Z" fill="#0f7a69" stroke="#0f7a69" stroke-width="1.51"/><path d="M1533,-370L1149,-272L1287,-115Z" fill="#0e7d6a" stroke="#0e7d6a" stroke-width="1.51"/><path d="M1707,434L1708,214L1422,414Z" fill="#149983" stroke="#149983" stroke-width="1.51"/><path d="M1981,491L1708,214L1707,434Z" fill="#14a28a" stroke="#14a28a" stroke-width="1.51"/><path d="M971,-302L707,-346L655,-55Z" fill="#0d6a5c" stroke="#0d6a5c" stroke-width="1.51"/><path d="M471,-151L150,-289L234,-68Z" fill="#0a6354" stroke="#0a6354" stroke-width="1.51"/><path d="M234,-68L-3,124L210,168Z" fill="#0c6658" stroke="#0c6658" stroke-width="1.51"/><path d="M-3,124L-110,365L214,345Z" fill="#0c695b" stroke="#0c695b" stroke-width="1.51"/><path d="M-40,695L-309,677L-35,848Z" fill="#0e7967" stroke="#0e7967" stroke-width="1.51"/><path d="M1753,706L1917,693L1707,434Z" fill="#15aa92" stroke="#15aa92" stroke-width="1.51"/><path d="M1720,1191L1781,911L1489,909Z" fill="#14bd9f" stroke="#14bd9f" stroke-width="1.51"/><path d="M1720,1191L1489,909L1477,1129Z" fill="#15bc9f" stroke="#15bc9f" stroke-width="1.51"/><path d="M-362,874L-46,1092L-35,848Z" fill="#0e846f" stroke="#0e846f" stroke-width="1.51"/><path d="M-35,848L-46,1092L150,1116Z" fill="#0f8c76" stroke="#0f8c76" stroke-width="1.51"/><path d="M150,1116L201,1475L463,1352Z" fill="#0fa288" stroke="#0fa288" stroke-width="1.51"/><path d="M234,-68L-51,-55L-3,124Z" fill="#0a6354" stroke="#0a6354" stroke-width="1.51"/><path d="M707,-346L499,-377L471,-151Z" fill="#0b6556" stroke="#0b6556" stroke-width="1.51"/><path d="M1694,1342L1720,1191L1477,1129Z" fill="#13c9a9" stroke="#13c9a9" stroke-width="1.51"/><path d="M1781,911L1917,693L1753,706Z" fill="#15b59a" stroke="#15b59a" stroke-width="1.51"/><path d="M1996,880L1917,693L1781,911Z" fill="#14bc9f" stroke="#14bc9f" stroke-width="1.51"/><path d="M463,1352L201,1475L724,1460Z" fill="#10ad91" stroke="#10ad91" stroke-width="1.51"/><path d="M724,1460L201,1475L1008,1481Z" fill="#12b397" stroke="#12b397" stroke-width="1.51"/><path d="M6,1335L201,1475L150,1116Z" fill="#0e9f86" stroke="#0e9f86" stroke-width="1.51"/><path d="M1008,1481L1487,1477L1215,1399Z" fill="#14c6a6" stroke="#14c6a6" stroke-width="1.51"/><path d="M1215,1399L1487,1477L1245,1181Z" fill="#14c2a4" stroke="#14c2a4" stroke-width="1.51"/><path d="M150,-289L-51,-55L234,-68Z" fill="#096052" stroke="#096052" stroke-width="1.51"/><path d="M-342,118L-316,399L-110,365Z" fill="#0b6556" stroke="#0b6556" stroke-width="1.51"/><path d="M-46,1092L6,1335L150,1116Z" fill="#0e967e" stroke="#0e967e" stroke-width="1.51"/><path d="M499,-377L150,-289L471,-151Z" fill="#0a6253" stroke="#0a6253" stroke-width="1.51"/><path d="M1487,1477L1694,1342L1477,1129Z" fill="#13cbaa" stroke="#13cbaa" stroke-width="1.51"/><path d="M1961,1231L1996,880L1781,911Z" fill="#13c8a8" stroke="#13c8a8" stroke-width="1.51"/><path d="M1779,-144L1533,-370L1429,-71Z" fill="#0e8974" stroke="#0e8974" stroke-width="1.51"/><path d="M1917,693L1981,491L1707,434Z" fill="#15a991" stroke="#15a991" stroke-width="1.51"/><path d="M-46,1092L-316,1219L6,1335Z" fill="#0c957d" stroke="#0c957d" stroke-width="1.51"/><path d="M-110,365L-309,677L-40,695Z" fill="#0e6f60" stroke="#0e6f60" stroke-width="1.51"/><path d="M-316,399L-309,677L-110,365Z" fill="#0d6a5b" stroke="#0d6a5b" stroke-width="1.51"/><path d="M-342,118L-110,365L-3,124Z" fill="#0b6456" stroke="#0b6456" stroke-width="1.51"/><path d="M1429,-71L1533,-370L1287,-115Z" fill="#0e826f" stroke="#0e826f" stroke-width="1.51"/><path d="M1149,-272L1533,-370L971,-302Z" fill="#0e7665" stroke="#0e7665" stroke-width="1.51"/><path d="M971,-302L1533,-370L707,-346Z" fill="#0d7060" stroke="#0d7060" stroke-width="1.51"/><path d="M707,-346L1656,-404L499,-377Z" fill="#0d6a5c" stroke="#0d6a5c" stroke-width="1.51"/><path d="M1779,-144L1429,-71L1708,214Z" fill="#10907b" stroke="#10907b" stroke-width="1.51"/><path d="M2264,596L2146,458L1981,491Z" fill="#15b49a" stroke="#15b49a" stroke-width="1.51"/><path d="M1961,1231L1781,911L1720,1191Z" fill="#13caaa" stroke="#13caaa" stroke-width="1.51"/><path d="M1903,-52L1779,-144L1708,214Z" fill="#0f9780" stroke="#0f9780" stroke-width="1.51"/><path d="M1981,491L1983,157L1708,214Z" fill="#12a38b" stroke="#12a38b" stroke-width="1.51"/><path d="M2146,458L1983,157L1981,491Z" fill="#13ac92" stroke="#13ac92" stroke-width="1.51"/><path d="M-309,677L-362,874L-35,848Z" fill="#0d7a68" stroke="#0d7a68" stroke-width="1.51"/><path d="M-316,399L-362,874L-309,677Z" fill="#0c7060" stroke="#0c7060" stroke-width="1.51"/><path d="M1983,157L1903,-52L1708,214Z" fill="#109d85" stroke="#109d85" stroke-width="1.51"/><path d="M1779,-144L1656,-404L1533,-370Z" fill="#0d8973" stroke="#0d8973" stroke-width="1.51"/><path d="M-316,399L-342,118L-362,874Z" fill="#0c6759" stroke="#0c6759" stroke-width="1.51"/><path d="M-51,-55L-342,118L-3,124Z" fill="#096152" stroke="#096152" stroke-width="1.51"/><path d="M-215,-134L-342,118L-51,-55Z" fill="#085e4f" stroke="#085e4f" stroke-width="1.51"/><path d="M150,-289L-108,-260L-51,-55Z" fill="#085d4e" stroke="#085d4e" stroke-width="1.51"/><path d="M-251,-378L-108,-260L150,-289Z" fill="#07594a" stroke="#07594a" stroke-width="1.51"/><path d="M1956,1396L1961,1231L1694,1342Z" fill="#10dbb6" stroke="#10dbb6" stroke-width="1.51"/><path d="M1694,1342L1961,1231L1720,1191Z" fill="#11d2b0" stroke="#11d2b0" stroke-width="1.51"/><path d="M1894,-360L1656,-404L1779,-144Z" fill="#0c8e77" stroke="#0c8e77" stroke-width="1.51"/><path d="M1533,-370L1656,-404L707,-346Z" fill="#0d7866" stroke="#0d7866" stroke-width="1.51"/><path d="M-108,-260L-215,-134L-51,-55Z" fill="#075c4d" stroke="#075c4d" stroke-width="1.51"/><path d="M2264,596L1917,693L1996,880Z" fill="#14bda0" stroke="#14bda0" stroke-width="1.51"/><path d="M2264,596L1981,491L1917,693Z" fill="#15b49a" stroke="#15b49a" stroke-width="1.51"/><path d="M1983,157L2146,-131L1903,-52Z" fill="#0fa187" stroke="#0fa187" stroke-width="1.51"/><path d="M-362,874L-316,1219L-46,1092Z" fill="#0d8a73" stroke="#0d8a73" stroke-width="1.51"/><path d="M6,1335L-280,1388L201,1475Z" fill="#0ca287" stroke="#0ca287" stroke-width="1.51"/><path d="M1487,1477L1956,1396L1694,1342Z" fill="#10d8b4" stroke="#10d8b4" stroke-width="1.51"/><path d="M1961,1231L2180,908L1996,880Z" fill="#12cead" stroke="#12cead" stroke-width="1.51"/><path d="M2262,1111L2180,908L1961,1231Z" fill="#10d8b4" stroke="#10d8b4" stroke-width="1.51"/><path d="M-316,1219L-280,1388L6,1335Z" fill="#0b9980" stroke="#0b9980" stroke-width="1.51"/><path d="M2146,458L2196,188L1983,157Z" fill="#12ac92" stroke="#12ac92" stroke-width="1.51"/><path d="M1903,-52L1894,-360L1779,-144Z" fill="#0e957d" stroke="#0e957d" stroke-width="1.51"/><path d="M2489,206L2196,188L2146,458Z" fill="#11b598" stroke="#11b598" stroke-width="1.51"/><path d="M2146,-131L1894,-360L1903,-52Z" fill="#0d9b81" stroke="#0d9b81" stroke-width="1.51"/><path d="M2180,908L2264,596L1996,880Z" fill="#14c6a7" stroke="#14c6a7" stroke-width="1.51"/><path d="M-108,-260L-251,-378L-215,-134Z" fill="#06594a" stroke="#06594a" stroke-width="1.51"/><path d="M-215,-134L-251,-378L-342,118Z" fill="#075a4b" stroke="#075a4b" stroke-width="1.51"/><path d="M499,-377L-251,-378L150,-289Z" fill="#075c4d" stroke="#075c4d" stroke-width="1.51"/><path d="M1656,-404L-251,-378L499,-377Z" fill="#0b6455" stroke="#0b6455" stroke-width="1.51"/><path d="M2196,188L2146,-131L1983,157Z" fill="#10a78c" stroke="#10a78c" stroke-width="1.51"/><path d="M2209,-391L2146,-131L2439,-293Z" fill="#0aa588" stroke="#0aa588" stroke-width="1.51"/><path d="M2215,1412L2262,1111L1961,1231Z" fill="#0ee3bc" stroke="#0ee3bc" stroke-width="1.51"/><path d="M2180,908L2419,733L2264,596Z" fill="#13c9a9" stroke="#13c9a9" stroke-width="1.51"/><path d="M2507,884L2419,733L2180,908Z" fill="#11d1af" stroke="#11d1af" stroke-width="1.51"/><path d="M2264,596L2524,454L2146,458Z" fill="#13bc9f" stroke="#13bc9f" stroke-width="1.51"/><path d="M2262,1111L2507,884L2180,908Z" fill="#11d8b5" stroke="#11d8b5" stroke-width="1.51"/><path d="M1956,1396L2215,1412L1961,1231Z" fill="#0ee4bd" stroke="#0ee4bd" stroke-width="1.51"/><path d="M2419,1468L2215,1412L1956,1396Z" fill="#0af1c6" stroke="#0af1c6" stroke-width="1.51"/><path d="M2468,-65L2146,-131L2196,188Z" fill="#0dad8f" stroke="#0dad8f" stroke-width="1.51"/><path d="M2146,-131L2209,-391L1894,-360Z" fill="#0b9c82" stroke="#0b9c82" stroke-width="1.51"/><path d="M1894,-360L2209,-391L1656,-404Z" fill="#0a927a" stroke="#0a927a" stroke-width="1.51"/><path d="M2419,733L2524,454L2264,596Z" fill="#14c1a3" stroke="#14c1a3" stroke-width="1.51"/><path d="M2507,884L2524,454L2419,733Z" fill="#13c8a8" stroke="#13c8a8" stroke-width="1.51"/><path d="M2433,1224L2507,884L2262,1111Z" fill="#0fe0ba" stroke="#0fe0ba" stroke-width="1.51"/><path d="M2524,454L2489,206L2146,458Z" fill="#12ba9c" stroke="#12ba9c" stroke-width="1.51"/><path d="M2215,1412L2433,1224L2262,1111Z" fill="#0beac2" stroke="#0beac2" stroke-width="1.51"/><path d="M2524,454L2468,-65L2489,206Z" fill="#10b597" stroke="#10b597" stroke-width="1.51"/><path d="M2489,206L2468,-65L2196,188Z" fill="#0eb295" stroke="#0eb295" stroke-width="1.51"/><path d="M2215,1412L2419,1468L2433,1224Z" fill="#08f3c8" stroke="#08f3c8" stroke-width="1.51"/><path d="M2433,1224L2419,1468L2507,884Z" fill="#0de8c0" stroke="#0de8c0" stroke-width="1.51"/><path d="M1487,1477L2419,1468L1956,1396Z" fill="#0de7bf" stroke="#0de7bf" stroke-width="1.51"/><path d="M2468,-65L2439,-293L2146,-131Z" fill="#0aab8d" stroke="#0aab8d" stroke-width="1.51"/></svg>