<svg xmlns="http://www.w3.org/2000/svg" width="1920" height="1080"><path d="M892,608L825,483L664,725Z" fill="#1c4a3b" stroke="#1c4a3b" stroke-width="1.51"/><path d="M664,725L797,808L892,608Z" fill="#1c4e3d" stroke="#1c4e3d" stroke-width="1.51"/><path d="M825,483L639,339L664,725Z" fill="#1c4537" stroke="#1c4537" stroke-width="1.51"/><path d="M639,339L442,589L664,725Z" fill="#1c4436" stroke="#1c4436" stroke-width="1.51"/><path d="M664,725L610,915L797,808Z" fill="#1c4f3e" stroke="#1c4f3e" stroke-width="1.51"/><path d="M1145,348L848,181L825,483Z" fill="#1c4436" stroke="#1c4436" stroke-width="1.51"/><path d="M797,808L1049,741L892,608Z" fill="#1c5140" stroke="#1c5140" stroke-width="1.51"/><path d="M393,915L610,915L664,725Z" fill="#1c4d3d" stroke="#1c4d3d" stroke-width="1.51"/><path d="M797,808L1057,831L1049,741Z" fill="#1c5442" stroke="#1c5442" stroke-width="1.51"/><path d="M639,339L462,377L442,589Z" fill="#1c3e32" stroke="#1c3e32" stroke-width="1.51"/><path d="M858,1041L1057,831L797,808Z" fill="#1c5644" stroke="#1c5644" stroke-width="1.51"/><path d="M825,483L848,181L639,339Z" fill="#1c4034" stroke="#1c4034" stroke-width="1.51"/><path d="M639,339L327,217L462,377Z" fill="#1c392f" stroke="#1c392f" stroke-width="1.51"/><path d="M1145,348L825,483L892,608Z" fill="#1c4a3a" stroke="#1c4a3a" stroke-width="1.51"/><path d="M610,915L858,1041L797,808Z" fill="#1c5442" stroke="#1c5442" stroke-width="1.51"/><path d="M610,915L532,1040L858,1041Z" fill="#1c5543" stroke="#1c5543" stroke-width="1.51"/><path d="M442,589L393,915L664,725Z" fill="#1c4839" stroke="#1c4839" stroke-width="1.51"/><path d="M231,799L393,915L442,589Z" fill="#1c4638" stroke="#1c4638" stroke-width="1.51"/><path d="M1049,741L1145,348L892,608Z" fill="#1c4e3d" stroke="#1c4e3d" stroke-width="1.51"/><path d="M1265,424L1145,348L1049,741Z" fill="#1c4f3e" stroke="#1c4f3e" stroke-width="1.51"/><path d="M393,915L532,1040L610,915Z" fill="#1c503f" stroke="#1c503f" stroke-width="1.51"/><path d="M848,181L700,121L639,339Z" fill="#1c3b30" stroke="#1c3b30" stroke-width="1.51"/><path d="M1379,703L1265,424L1049,741Z" fill="#1c5442" stroke="#1c5442" stroke-width="1.51"/><path d="M393,915L439,1062L532,1040Z" fill="#1c503f" stroke="#1c503f" stroke-width="1.51"/><path d="M1081,1331L1114,1134L858,1041Z" fill="#1a634d" stroke="#1a634d" stroke-width="1.51"/><path d="M89,583L231,799L442,589Z" fill="#1c4034" stroke="#1c4034" stroke-width="1.51"/><path d="M393,915L87,1064L439,1062Z" fill="#1d4d3d" stroke="#1d4d3d" stroke-width="1.51"/><path d="M462,377L157,347L442,589Z" fill="#1b3b30" stroke="#1b3b30" stroke-width="1.51"/><path d="M700,121L327,217L639,339Z" fill="#1b382e" stroke="#1b382e" stroke-width="1.51"/><path d="M700,121L553,-4L327,217Z" fill="#1b342b" stroke="#1b342b" stroke-width="1.51"/><path d="M848,181L886,6L700,121Z" fill="#1b3a2f" stroke="#1b3a2f" stroke-width="1.51"/><path d="M1156,116L886,6L848,181Z" fill="#1c3d31" stroke="#1c3d31" stroke-width="1.51"/><path d="M1156,116L848,181L1145,348Z" fill="#1c4335" stroke="#1c4335" stroke-width="1.51"/><path d="M1235,129L1156,116L1145,348Z" fill="#1c4537" stroke="#1c4537" stroke-width="1.51"/><path d="M886,6L553,-4L700,121Z" fill="#1b362c" stroke="#1b362c" stroke-width="1.51"/><path d="M1339,880L1379,703L1049,741Z" fill="#1c5a47" stroke="#1c5a47" stroke-width="1.51"/><path d="M1265,424L1235,129L1145,348Z" fill="#1d493a" stroke="#1d493a" stroke-width="1.51"/><path d="M1339,880L1049,741L1057,831Z" fill="#1c5946" stroke="#1c5946" stroke-width="1.51"/><path d="M858,1041L1114,1134L1057,831Z" fill="#1b5d49" stroke="#1b5d49" stroke-width="1.51"/><path d="M630,1398L858,1041L532,1040Z" fill="#1c5b47" stroke="#1c5b47" stroke-width="1.51"/><path d="M152,197L157,347L327,217Z" fill="#1a3229" stroke="#1a3229" stroke-width="1.51"/><path d="M327,217L157,347L462,377Z" fill="#1b362c" stroke="#1b362c" stroke-width="1.51"/><path d="M1114,1134L1339,880L1057,831Z" fill="#1b5e4a" stroke="#1b5e4a" stroke-width="1.51"/><path d="M157,347L89,583L442,589Z" fill="#1b3b2f" stroke="#1b3b2f" stroke-width="1.51"/><path d="M1156,116L1160,-70L886,6Z" fill="#1c3d31" stroke="#1c3d31" stroke-width="1.51"/><path d="M1535,247L1235,129L1265,424Z" fill="#1c4c3c" stroke="#1c4c3c" stroke-width="1.51"/><path d="M179,-18L152,197L327,217Z" fill="#1a2e27" stroke="#1a2e27" stroke-width="1.51"/><path d="M-156,369L-79,688L89,583Z" fill="#1b362c" stroke="#1b362c" stroke-width="1.51"/><path d="M1114,1134L1325,1078L1339,880Z" fill="#1b644d" stroke="#1b644d" stroke-width="1.51"/><path d="M1585,701L1534,445L1379,703Z" fill="#1b5b47" stroke="#1b5b47" stroke-width="1.51"/><path d="M439,1062L387,1279L532,1040Z" fill="#1c5442" stroke="#1c5442" stroke-width="1.51"/><path d="M87,1064L387,1279L439,1062Z" fill="#1d5140" stroke="#1d5140" stroke-width="1.51"/><path d="M87,1064L393,915L231,799Z" fill="#1c493a" stroke="#1c493a" stroke-width="1.51"/><path d="M1273,-21L1160,-70L1156,116Z" fill="#1c3f33" stroke="#1c3f33" stroke-width="1.51"/><path d="M610,-280L395,-110L553,-4Z" fill="#192c25" stroke="#192c25" stroke-width="1.51"/><path d="M553,-4L395,-110L327,217Z" fill="#1a2f27" stroke="#1a2f27" stroke-width="1.51"/><path d="M857,-232L553,-4L886,6Z" fill="#1a332a" stroke="#1a332a" stroke-width="1.51"/><path d="M1114,1134L1336,1416L1325,1078Z" fill="#196a52" stroke="#196a52" stroke-width="1.51"/><path d="M898,1421L1081,1331L858,1041Z" fill="#1a644e" stroke="#1a644e" stroke-width="1.51"/><path d="M387,1279L630,1398L532,1040Z" fill="#1c5946" stroke="#1c5946" stroke-width="1.51"/><path d="M-73,812L87,1064L231,799Z" fill="#1c4436" stroke="#1c4436" stroke-width="1.51"/><path d="M1379,703L1534,445L1265,424Z" fill="#1c5543" stroke="#1c5543" stroke-width="1.51"/><path d="M1235,129L1273,-21L1156,116Z" fill="#1c4235" stroke="#1c4235" stroke-width="1.51"/><path d="M1585,701L1379,703L1615,882Z" fill="#1b604b" stroke="#1b604b" stroke-width="1.51"/><path d="M1535,247L1273,-21L1235,129Z" fill="#1c4638" stroke="#1c4638" stroke-width="1.51"/><path d="M630,1398L898,1421L858,1041Z" fill="#1a624c" stroke="#1a624c" stroke-width="1.51"/><path d="M89,583L-73,812L231,799Z" fill="#1c3f32" stroke="#1c3f32" stroke-width="1.51"/><path d="M-156,369L89,583L157,347Z" fill="#1a342b" stroke="#1a342b" stroke-width="1.51"/><path d="M152,197L-38,149L157,347Z" fill="#1a2e27" stroke="#1a2e27" stroke-width="1.51"/><path d="M395,-110L179,-18L327,217Z" fill="#1a2c25" stroke="#1a2c25" stroke-width="1.51"/><path d="M1615,882L1379,703L1339,880Z" fill="#1b604b" stroke="#1b604b" stroke-width="1.51"/><path d="M1008,-199L886,6L1160,-70Z" fill="#1b382e" stroke="#1b382e" stroke-width="1.51"/><path d="M1008,-199L857,-232L886,6Z" fill="#1a342b" stroke="#1a342b" stroke-width="1.51"/><path d="M-79,688L-73,812L89,583Z" fill="#1c3b30" stroke="#1c3b30" stroke-width="1.51"/><path d="M1386,-306L1008,-199L1160,-70Z" fill="#1c382e" stroke="#1c382e" stroke-width="1.51"/><path d="M1534,445L1535,247L1265,424Z" fill="#1c5140" stroke="#1c5140" stroke-width="1.51"/><path d="M1791,508L1535,247L1534,445Z" fill="#1c5643" stroke="#1c5643" stroke-width="1.51"/><path d="M857,-232L610,-280L553,-4Z" fill="#1a2e27" stroke="#1a2e27" stroke-width="1.51"/><path d="M395,-110L86,-217L179,-18Z" fill="#182721" stroke="#182721" stroke-width="1.51"/><path d="M179,-18L-38,149L152,197Z" fill="#192a24" stroke="#192a24" stroke-width="1.51"/><path d="M1585,701L1721,686L1534,445Z" fill="#1b5d49" stroke="#1b5d49" stroke-width="1.51"/><path d="M1548,1145L1615,882L1339,880Z" fill="#1a6750" stroke="#1a6750" stroke-width="1.51"/><path d="M1548,1145L1339,880L1325,1078Z" fill="#196750" stroke="#196750" stroke-width="1.51"/><path d="M-38,149L-156,369L157,347Z" fill="#1a2e27" stroke="#1a2e27" stroke-width="1.51"/><path d="M-79,688L-330,669L-73,812Z" fill="#1b392e" stroke="#1b392e" stroke-width="1.51"/><path d="M-389,841L-85,1037L-73,812Z" fill="#1c3e32" stroke="#1c3e32" stroke-width="1.51"/><path d="M-73,812L-85,1037L87,1064Z" fill="#1c4536" stroke="#1c4536" stroke-width="1.51"/><path d="M87,1064L142,1414L387,1279Z" fill="#1c5341" stroke="#1c5341" stroke-width="1.51"/><path d="M1519,1268L1548,1145L1325,1078Z" fill="#186d54" stroke="#186d54" stroke-width="1.51"/><path d="M1336,1416L1114,1134L1081,1331Z" fill="#186b53" stroke="#186b53" stroke-width="1.51"/><path d="M179,-18L-91,-4L-38,149Z" fill="#182721" stroke="#182721" stroke-width="1.51"/><path d="M610,-280L426,-314L395,-110Z" fill="#192822" stroke="#192822" stroke-width="1.51"/><path d="M1615,882L1721,686L1585,701Z" fill="#1a634d" stroke="#1a634d" stroke-width="1.51"/><path d="M1807,848L1721,686L1615,882Z" fill="#19664f" stroke="#19664f" stroke-width="1.51"/><path d="M898,1421L1336,1416L1081,1331Z" fill="#186d54" stroke="#186d54" stroke-width="1.51"/><path d="M-28,1260L142,1414L87,1064Z" fill="#1d4f3f" stroke="#1d4f3f" stroke-width="1.51"/><path d="M387,1279L142,1414L630,1398Z" fill="#1b5b47" stroke="#1b5b47" stroke-width="1.51"/><path d="M630,1398L142,1414L898,1421Z" fill="#1a614b" stroke="#1a614b" stroke-width="1.51"/><path d="M-85,1037L-28,1260L87,1064Z" fill="#1c4a3b" stroke="#1c4a3b" stroke-width="1.51"/><path d="M1336,1416L1519,1268L1325,1078Z" fill="#176f56" stroke="#176f56" stroke-width="1.51"/><path d="M1770,1190L1807,848L1615,882Z" fill="#186d54" stroke="#186d54" stroke-width="1.51"/><path d="M86,-217L-91,-4L179,-18Z" fill="#17241f" stroke="#17241f" stroke-width="1.51"/><path d="M-38,149L-367,142L-156,369Z" fill="#192923" stroke="#192923" stroke-width="1.51"/><path d="M1613,-102L1386,-306L1273,-21Z" fill="#1c3f33" stroke="#1c3f33" stroke-width="1.51"/><path d="M1721,686L1791,508L1534,445Z" fill="#1b5c48" stroke="#1b5c48" stroke-width="1.51"/><path d="M1929,472L1791,508L2058,580Z" fill="#1a614c" stroke="#1a614c" stroke-width="1.51"/><path d="M426,-314L86,-217L395,-110Z" fill="#182520" stroke="#182520" stroke-width="1.51"/><path d="M-85,1037L-337,1177L-28,1260Z" fill="#1c4739" stroke="#1c4739" stroke-width="1.51"/><path d="M-156,369L-330,669L-79,688Z" fill="#1a342b" stroke="#1a342b" stroke-width="1.51"/><path d="M-338,408L-330,669L-156,369Z" fill="#1a2f27" stroke="#1a2f27" stroke-width="1.51"/><path d="M1770,1190L1615,882L1548,1145Z" fill="#186e55" stroke="#186e55" stroke-width="1.51"/><path d="M-367,142L-338,408L-156,369Z" fill="#192923" stroke="#192923" stroke-width="1.51"/><path d="M1273,-21L1386,-306L1160,-70Z" fill="#1c3c31" stroke="#1c3c31" stroke-width="1.51"/><path d="M1008,-199L1386,-306L857,-232Z" fill="#1b342b" stroke="#1b342b" stroke-width="1.51"/><path d="M857,-232L1386,-306L610,-280Z" fill="#1a3128" stroke="#1a3128" stroke-width="1.51"/><path d="M610,-280L1478,-344L426,-314Z" fill="#192d26" stroke="#192d26" stroke-width="1.51"/><path d="M1613,-102L1273,-21L1535,247Z" fill="#1c4738" stroke="#1c4738" stroke-width="1.51"/><path d="M1706,-1L1613,-102L1535,247Z" fill="#1c4a3b" stroke="#1c4a3b" stroke-width="1.51"/><path d="M1791,508L1794,185L1535,247Z" fill="#1c5543" stroke="#1c5543" stroke-width="1.51"/><path d="M1929,472L1794,185L1791,508Z" fill="#1b5b47" stroke="#1b5b47" stroke-width="1.51"/><path d="M1794,185L1706,-1L1535,247Z" fill="#1c4f3e" stroke="#1c4f3e" stroke-width="1.51"/><path d="M-330,669L-389,841L-73,812Z" fill="#1b382e" stroke="#1b382e" stroke-width="1.51"/><path d="M-338,408L-389,841L-330,669Z" fill="#1a3229" stroke="#1a3229" stroke-width="1.51"/><path d="M1764,1327L1770,1190L1519,1268Z" fill="#15765b" stroke="#15765b" stroke-width="1.51"/><path d="M1519,1268L1770,1190L1548,1145Z" fill="#167258" stroke="#167258" stroke-width="1.51"/><path d="M2058,580L1721,686L1807,848Z" fill="#1a664f" stroke="#1a664f" stroke-width="1.51"/><path d="M2058,580L1791,508L1721,686Z" fill="#1a624d" stroke="#1a624d" stroke-width="1.51"/><path d="M-91,-4L-367,142L-38,149Z" fill="#182520" stroke="#182520" stroke-width="1.51"/><path d="M-153,-186L-227,-91L-91,-4Z" fill="#161f1b" stroke="#161f1b" stroke-width="1.51"/><path d="M86,-217L-153,-186L-91,-4Z" fill="#17201c" stroke="#17201c" stroke-width="1.51"/><path d="M-266,-315L-153,-186L86,-217Z" fill="#161c19" stroke="#161c19" stroke-width="1.51"/><path d="M1613,-102L1478,-344L1386,-306Z" fill="#1b3d31" stroke="#1b3d31" stroke-width="1.51"/><path d="M1386,-306L1478,-344L610,-280Z" fill="#1b342b" stroke="#1b342b" stroke-width="1.51"/><path d="M1695,-295L1478,-344L1613,-102Z" fill="#1c4034" stroke="#1c4034" stroke-width="1.51"/><path d="M-338,408L-367,142L-389,841Z" fill="#192d25" stroke="#192d25" stroke-width="1.51"/><path d="M-227,-91L-367,142L-91,-4Z" fill="#17211d" stroke="#17211d" stroke-width="1.51"/><path d="M-389,841L-337,1177L-85,1037Z" fill="#1c4034" stroke="#1c4034" stroke-width="1.51"/><path d="M-28,1260L-298,1318L142,1414Z" fill="#1c4f3f" stroke="#1c4f3f" stroke-width="1.51"/><path d="M1336,1416L1764,1327L1519,1268Z" fill="#15765a" stroke="#15765a" stroke-width="1.51"/><path d="M1770,1190L1966,879L1807,848Z" fill="#177056" stroke="#177056" stroke-width="1.51"/><path d="M2056,1058L1966,879L1770,1190Z" fill="#157459" stroke="#157459" stroke-width="1.51"/><path d="M-337,1177L-298,1318L-28,1260Z" fill="#1d493b" stroke="#1d493b" stroke-width="1.51"/><path d="M1706,-1L1695,-295L1613,-102Z" fill="#1d4537" stroke="#1d4537" stroke-width="1.51"/><path d="M1794,185L1929,-88L1706,-1Z" fill="#1c4e3e" stroke="#1c4e3e" stroke-width="1.51"/><path d="M1929,472L1983,219L1794,185Z" fill="#1c5945" stroke="#1c5945" stroke-width="1.51"/><path d="M2262,239L1983,219L1929,472Z" fill="#1c5d49" stroke="#1c5d49" stroke-width="1.51"/><path d="M1929,-88L1695,-295L1706,-1Z" fill="#1d4839" stroke="#1d4839" stroke-width="1.51"/><path d="M1966,879L2058,580L1807,848Z" fill="#186b53" stroke="#186b53" stroke-width="1.51"/><path d="M-227,-91L-266,-315L-367,142Z" fill="#151d1a" stroke="#151d1a" stroke-width="1.51"/><path d="M-153,-186L-266,-315L-227,-91Z" fill="#151b19" stroke="#151b19" stroke-width="1.51"/><path d="M426,-314L-266,-315L86,-217Z" fill="#161f1b" stroke="#161f1b" stroke-width="1.51"/><path d="M1478,-344L-266,-315L426,-314Z" fill="#182721" stroke="#182721" stroke-width="1.51"/><path d="M2238,-15L1929,-88L1983,219Z" fill="#1c5341" stroke="#1c5341" stroke-width="1.51"/><path d="M1983,219L1929,-88L1794,185Z" fill="#1c5241" stroke="#1c5241" stroke-width="1.51"/><path d="M1966,879L2185,730L2058,580Z" fill="#186c54" stroke="#186c54" stroke-width="1.51"/><path d="M2004,1345L2056,1058L1770,1190Z" fill="#137a5e" stroke="#137a5e" stroke-width="1.51"/><path d="M2281,852L2185,730L1966,879Z" fill="#167157" stroke="#167157" stroke-width="1.51"/><path d="M2300,467L2262,239L1929,472Z" fill="#1a634d" stroke="#1a634d" stroke-width="1.51"/><path d="M2056,1058L2281,852L1966,879Z" fill="#167459" stroke="#167459" stroke-width="1.51"/><path d="M1764,1327L2004,1345L1770,1190Z" fill="#127b5e" stroke="#127b5e" stroke-width="1.51"/><path d="M2185,1407L2004,1345L1764,1327Z" fill="#0e8162" stroke="#0e8162" stroke-width="1.51"/><path d="M2200,1182L2281,852L2056,1058Z" fill="#137a5d" stroke="#137a5d" stroke-width="1.51"/><path d="M2300,467L1929,472L2058,580Z" fill="#1a654e" stroke="#1a654e" stroke-width="1.51"/><path d="M2300,467L2058,580L2185,730Z" fill="#186a52" stroke="#186a52" stroke-width="1.51"/><path d="M2281,852L2300,467L2185,730Z" fill="#176f56" stroke="#176f56" stroke-width="1.51"/><path d="M2207,-222L1998,-329L1929,-88Z" fill="#1c4b3b" stroke="#1c4b3b" stroke-width="1.51"/><path d="M1929,-88L1998,-329L1695,-295Z" fill="#1d4638" stroke="#1d4638" stroke-width="1.51"/><path d="M1695,-295L1998,-329L1478,-344Z" fill="#1c4033" stroke="#1c4033" stroke-width="1.51"/><path d="M2004,1345L2200,1182L2056,1058Z" fill="#117d60" stroke="#117d60" stroke-width="1.51"/><path d="M2262,239L2238,-15L1983,219Z" fill="#1b5a46" stroke="#1b5a46" stroke-width="1.51"/><path d="M2300,467L2238,-15L2262,239Z" fill="#1b5f4a" stroke="#1b5f4a" stroke-width="1.51"/><path d="M2004,1345L2185,1407L2200,1182Z" fill="#0d8364" stroke="#0d8364" stroke-width="1.51"/><path d="M2200,1182L2185,1407L2281,852Z" fill="#0f7f61" stroke="#0f7f61" stroke-width="1.51"/><path d="M1336,1416L2185,1407L1764,1327Z" fill="#117c5f" stroke="#117c5f" stroke-width="1.51"/><path d="M898,1421L2185,1407L1336,1416Z" fill="#14775b" stroke="#14775b" stroke-width="1.51"/><path d="M2238,-15L2207,-222L1929,-88Z" fill="#1c503f" stroke="#1c503f" stroke-width="1.51"/></svg>