<?xml version="1.0" encoding="utf-8"?>
<!-- Generator: Adobe Illustrator 22.1.0, SVG Export Plug-In . SVG Version: 6.00 Build 0)  -->
<svg version="1.1" id="Layer_1" xmlns="http://www.w3.org/2000/svg" xmlns:xlink="http://www.w3.org/1999/xlink" x="0px" y="0px"
	 viewBox="0 0 1920 1080" style="enable-background:new 0 0 1920 1080;" xml:space="preserve">
<style type="text/css">
	.st0{fill:#28B99B;stroke:#28B99B;stroke-width:1.51;}
	.st1{fill:#33C5A4;stroke:#33C5A4;stroke-width:1.51;}
	.st2{fill:#25C1A1;stroke:#25C1A1;stroke-width:1.51;}
	.st3{fill:#22C0A1;stroke:#22C0A1;stroke-width:1.51;}
	.st4{fill:#2EB698;stroke:#2EB698;stroke-width:1.51;}
	.st5{fill:#22B297;stroke:#22B297;stroke-width:1.51;}
	.st6{fill:#35B799;stroke:#35B799;stroke-width:1.51;}
	.st7{fill:#1BB599;stroke:#1BB599;stroke-width:1.51;}
	.st8{fill:#2AAF94;stroke:#2AAF94;stroke-width:1.51;}
	.st9{fill:#29C0A1;stroke:#29C0A1;stroke-width:1.51;}
	.st10{fill:#26B79A;stroke:#26B79A;stroke-width:1.51;}
	.st11{fill:#35BFA0;stroke:#35BFA0;stroke-width:1.51;}
	.st12{fill:#21AD92;stroke:#21AD92;stroke-width:1.51;}
	.st13{fill:#2BA68C;stroke:#2BA68C;stroke-width:1.51;}
	.st14{fill:#279F86;stroke:#279F86;stroke-width:1.51;}
	.st15{fill:#38A68B;stroke:#38A68B;stroke-width:1.51;}
	.st16{fill:#41CAA8;stroke:#41CAA8;stroke-width:1.51;}
	.st17{fill:#3CC3A2;stroke:#3CC3A2;stroke-width:1.51;}
	.st18{fill:#48CDA9;stroke:#48CDA9;stroke-width:1.51;}
	.st19{fill:#41CAA7;stroke:#41CAA7;stroke-width:1.51;}
	.st20{fill:#3EC9A7;stroke:#3EC9A7;stroke-width:1.51;}
	.st21{fill:#43CBA8;stroke:#43CBA8;stroke-width:1.51;}
	.st22{fill:#1FB094;stroke:#1FB094;stroke-width:1.51;}
	.st23{fill:#35C5A4;stroke:#35C5A4;stroke-width:1.51;}
	.st24{fill:#42CBA8;stroke:#42CBA8;stroke-width:1.51;}
	.st25{fill:#31A289;stroke:#31A289;stroke-width:1.51;}
	.st26{fill:#47CDA9;stroke:#47CDA9;stroke-width:1.51;}
	.st27{fill:#51D1AC;stroke:#51D1AC;stroke-width:1.51;}
	.st28{fill:#48CDAA;stroke:#48CDAA;stroke-width:1.51;}
	.st29{fill:#3DC1A1;stroke:#3DC1A1;stroke-width:1.51;}
	.st30{fill:#289D85;stroke:#289D85;stroke-width:1.51;}
	.st31{fill:#2DB497;stroke:#2DB497;stroke-width:1.51;}
	.st32{fill:#44CBA9;stroke:#44CBA9;stroke-width:1.51;}
	.st33{fill:#46CBA8;stroke:#46CBA8;stroke-width:1.51;}
	.st34{fill:#299A83;stroke:#299A83;stroke-width:1.51;}
	.st35{fill:#2AA88D;stroke:#2AA88D;stroke-width:1.51;}
	.st36{fill:#30AE92;stroke:#30AE92;stroke-width:1.51;}
	.st37{fill:#3CAF93;stroke:#3CAF93;stroke-width:1.51;}
	.st38{fill:#329881;stroke:#329881;stroke-width:1.51;}
	.st39{fill:#42B496;stroke:#42B496;stroke-width:1.51;}
	.st40{fill:#41BF9F;stroke:#41BF9F;stroke-width:1.51;}
	.st41{fill:#46C8A6;stroke:#46C8A6;stroke-width:1.51;}
	.st42{fill:#52D2AD;stroke:#52D2AD;stroke-width:1.51;}
	.st43{fill:#56D4AE;stroke:#56D4AE;stroke-width:1.51;}
	.st44{fill:#38BA9B;stroke:#38BA9B;stroke-width:1.51;}
	.st45{fill:#50D1AC;stroke:#50D1AC;stroke-width:1.51;}
	.st46{fill:#45C6A3;stroke:#45C6A3;stroke-width:1.51;}
	.st47{fill:#4CCFAB;stroke:#4CCFAB;stroke-width:1.51;}
	.st48{fill:#55D4AD;stroke:#55D4AD;stroke-width:1.51;}
	.st49{fill:#38977F;stroke:#38977F;stroke-width:1.51;}
	.st50{fill:#2C8E79;stroke:#2C8E79;stroke-width:1.51;}
	.st51{fill:#25A48B;stroke:#25A48B;stroke-width:1.51;}
	.st52{fill:#3EB698;stroke:#3EB698;stroke-width:1.51;}
	.st53{fill:#54D3AD;stroke:#54D3AD;stroke-width:1.51;}
	.st54{fill:#2B947E;stroke:#2B947E;stroke-width:1.51;}
	.st55{fill:#54D3AE;stroke:#54D3AE;stroke-width:1.51;}
	.st56{fill:#30917C;stroke:#30917C;stroke-width:1.51;}
	.st57{fill:#3C9E85;stroke:#3C9E85;stroke-width:1.51;}
	.st58{fill:#4ED0AB;stroke:#4ED0AB;stroke-width:1.51;}
	.st59{fill:#299B84;stroke:#299B84;stroke-width:1.51;}
	.st60{fill:#2B947D;stroke:#2B947D;stroke-width:1.51;}
	.st61{fill:#45B092;stroke:#45B092;stroke-width:1.51;}
	.st62{fill:#4AB798;stroke:#4AB798;stroke-width:1.51;}
	.st63{fill:#2D8B77;stroke:#2D8B77;stroke-width:1.51;}
	.st64{fill:#2D8975;stroke:#2D8975;stroke-width:1.51;}
	.st65{fill:#4DD0AB;stroke:#4DD0AB;stroke-width:1.51;}
	.st66{fill:#4BCFAB;stroke:#4BCFAB;stroke-width:1.51;}
	.st67{fill:#3CAA8F;stroke:#3CAA8F;stroke-width:1.51;}
	.st68{fill:#4AC4A2;stroke:#4AC4A2;stroke-width:1.51;}
	.st69{fill:#52D0AB;stroke:#52D0AB;stroke-width:1.51;}
	.st70{fill:#3AB093;stroke:#3AB093;stroke-width:1.51;}
	.st71{fill:#2BA289;stroke:#2BA289;stroke-width:1.51;}
	.st72{fill:#48BC9C;stroke:#48BC9C;stroke-width:1.51;}
	.st73{fill:#299982;stroke:#299982;stroke-width:1.51;}
	.st74{fill:#5BD7B0;stroke:#5BD7B0;stroke-width:1.51;}
	.st75{fill:#58D5AE;stroke:#58D5AE;stroke-width:1.51;}
	.st76{fill:#5DD8B0;stroke:#5DD8B0;stroke-width:1.51;}
	.st77{fill:#5DD7B1;stroke:#5DD7B1;stroke-width:1.51;}
	.st78{fill:#63DBB3;stroke:#63DBB3;stroke-width:1.51;}
	.st79{fill:#439E85;stroke:#439E85;stroke-width:1.51;}
	.st80{fill:#5DD8B1;stroke:#5DD8B1;stroke-width:1.51;}
	.st81{fill:#6BE0B6;stroke:#6BE0B6;stroke-width:1.51;}
	.st82{fill:#4BC4A2;stroke:#4BC4A2;stroke-width:1.51;}
	.st83{fill:#47A78C;stroke:#47A78C;stroke-width:1.51;}
	.st84{fill:#2F7F6D;stroke:#2F7F6D;stroke-width:1.51;}
	.st85{fill:#4BAD8F;stroke:#4BAD8F;stroke-width:1.51;}
	.st86{fill:#53B898;stroke:#53B898;stroke-width:1.51;}
	.st87{fill:#4DB596;stroke:#4DB596;stroke-width:1.51;}
	.st88{fill:#51C8A5;stroke:#51C8A5;stroke-width:1.51;}
	.st89{fill:#51BE9D;stroke:#51BE9D;stroke-width:1.51;}
	.st90{fill:#33A289;stroke:#33A289;stroke-width:1.51;}
	.st91{fill:#4CB999;stroke:#4CB999;stroke-width:1.51;}
	.st92{fill:#2C917B;stroke:#2C917B;stroke-width:1.51;}
	.st93{fill:#2F9982;stroke:#2F9982;stroke-width:1.51;}
	.st94{fill:#2D8A75;stroke:#2D8A75;stroke-width:1.51;}
	.st95{fill:#2E7F6D;stroke:#2E7F6D;stroke-width:1.51;}
	.st96{fill:#54C6A3;stroke:#54C6A3;stroke-width:1.51;}
	.st97{fill:#5FD9B1;stroke:#5FD9B1;stroke-width:1.51;}
	.st98{fill:#61DAB2;stroke:#61DAB2;stroke-width:1.51;}
	.st99{fill:#50CCA8;stroke:#50CCA8;stroke-width:1.51;}
	.st100{fill:#6BDFB5;stroke:#6BDFB5;stroke-width:1.51;}
	.st101{fill:#48AE91;stroke:#48AE91;stroke-width:1.51;}
	.st102{fill:#5CC8A4;stroke:#5CC8A4;stroke-width:1.51;}
	.st103{fill:#2F7A69;stroke:#2F7A69;stroke-width:1.51;}
	.st104{fill:#2F6D5F;stroke:#2F6D5F;stroke-width:1.51;}
	.st105{fill:#58D5AF;stroke:#58D5AF;stroke-width:1.51;}
	.st106{fill:#4FAB8D;stroke:#4FAB8D;stroke-width:1.51;}
	.st107{fill:#59D6AF;stroke:#59D6AF;stroke-width:1.51;}
	.st108{fill:#41A187;stroke:#41A187;stroke-width:1.51;}
	.st109{fill:#41A78C;stroke:#41A78C;stroke-width:1.51;}
	.st110{fill:#51BB9A;stroke:#51BB9A;stroke-width:1.51;}
	.st111{fill:#6BE0B5;stroke:#6BE0B5;stroke-width:1.51;}
	.st112{fill:#53C4A1;stroke:#53C4A1;stroke-width:1.51;}
	.st113{fill:#57CCA8;stroke:#57CCA8;stroke-width:1.51;}
	.st114{fill:#60D9B1;stroke:#60D9B1;stroke-width:1.51;}
	.st115{fill:#6CE0B6;stroke:#6CE0B6;stroke-width:1.51;}
	.st116{fill:#2F7968;stroke:#2F7968;stroke-width:1.51;}
	.st117{fill:#2C907B;stroke:#2C907B;stroke-width:1.51;}
	.st118{fill:#2E8672;stroke:#2E8672;stroke-width:1.51;}
	.st119{fill:#5ED6AE;stroke:#5ED6AE;stroke-width:1.51;}
	.st120{fill:#72E4B8;stroke:#72E4B8;stroke-width:1.51;}
	.st121{fill:#71E3B8;stroke:#71E3B8;stroke-width:1.51;}
	.st122{fill:#60D0AA;stroke:#60D0AA;stroke-width:1.51;}
	.st123{fill:#6EE1B6;stroke:#6EE1B6;stroke-width:1.51;}
	.st124{fill:#56B192;stroke:#56B192;stroke-width:1.51;}
	.st125{fill:#52B192;stroke:#52B192;stroke-width:1.51;}
	.st126{fill:#73E4B9;stroke:#73E4B9;stroke-width:1.51;}
	.st127{fill:#6FE2B7;stroke:#6FE2B7;stroke-width:1.51;}
	.st128{fill:#74E5B9;stroke:#74E5B9;stroke-width:1.51;}
	.st129{fill:#68DEB4;stroke:#68DEB4;stroke-width:1.51;}
	.st130{fill:#78E7BA;stroke:#78E7BA;stroke-width:1.51;}
	.st131{fill:#54BA99;stroke:#54BA99;stroke-width:1.51;}
	.st132{fill:#4BAA8E;stroke:#4BAA8E;stroke-width:1.51;}
	.st133{fill:#3E9C82;stroke:#3E9C82;stroke-width:1.51;}
	.st134{fill:#369780;stroke:#369780;stroke-width:1.51;}
	.st135{fill:#67DDB4;stroke:#67DDB4;stroke-width:1.51;}
	.st136{fill:#49A488;stroke:#49A488;stroke-width:1.51;}
	.st137{fill:#58B898;stroke:#58B898;stroke-width:1.51;}
	.st138{fill:#59C6A3;stroke:#59C6A3;stroke-width:1.51;}
	.st139{fill:#52B092;stroke:#52B092;stroke-width:1.51;}
	.st140{fill:#2F7C6B;stroke:#2F7C6B;stroke-width:1.51;}
	.st141{fill:#2F7868;stroke:#2F7868;stroke-width:1.51;}
	.st142{fill:#38907A;stroke:#38907A;stroke-width:1.51;}
	.st143{fill:#55AF90;stroke:#55AF90;stroke-width:1.51;}
	.st144{fill:#47A187;stroke:#47A187;stroke-width:1.51;}
	.st145{fill:#489C82;stroke:#489C82;stroke-width:1.51;}
	.st146{fill:#69DEB5;stroke:#69DEB5;stroke-width:1.51;}
	.st147{fill:#5FC4A1;stroke:#5FC4A1;stroke-width:1.51;}
	.st148{fill:#2F6D5E;stroke:#2F6D5E;stroke-width:1.51;}
	.st149{fill:#64DCB3;stroke:#64DCB3;stroke-width:1.51;}
	.st150{fill:#5BC19E;stroke:#5BC19E;stroke-width:1.51;}
	.st151{fill:#77E7BA;stroke:#77E7BA;stroke-width:1.51;}
	.st152{fill:#60C09D;stroke:#60C09D;stroke-width:1.51;}
	.st153{fill:#54A98C;stroke:#54A98C;stroke-width:1.51;}
	.st154{fill:#6EE2B7;stroke:#6EE2B7;stroke-width:1.51;}
	.st155{fill:#5ABD9C;stroke:#5ABD9C;stroke-width:1.51;}
	.st156{fill:#5ECDA8;stroke:#5ECDA8;stroke-width:1.51;}
	.st157{fill:#7AE8BB;stroke:#7AE8BB;stroke-width:1.51;}
	.st158{fill:#7CEABC;stroke:#7CEABC;stroke-width:1.51;}
	.st159{fill:#6ADFB5;stroke:#6ADFB5;stroke-width:1.51;}
	.st160{fill:#72E3B8;stroke:#72E3B8;stroke-width:1.51;}
	.st161{fill:#7BE9BB;stroke:#7BE9BB;stroke-width:1.51;}
	.st162{fill:#50A388;stroke:#50A388;stroke-width:1.51;}
	.st163{fill:#449980;stroke:#449980;stroke-width:1.51;}
	.st164{fill:#43947C;stroke:#43947C;stroke-width:1.51;}
	.st165{fill:#338974;stroke:#338974;stroke-width:1.51;}
	.st166{fill:#66D3AC;stroke:#66D3AC;stroke-width:1.51;}
	.st167{fill:#5DB796;stroke:#5DB796;stroke-width:1.51;}
	.st168{fill:#60B695;stroke:#60B695;stroke-width:1.51;}
	.st169{fill:#66DCB3;stroke:#66DCB3;stroke-width:1.51;}
	.st170{fill:#2F675A;stroke:#2F675A;stroke-width:1.51;}
	.st171{fill:#2E8571;stroke:#2E8571;stroke-width:1.51;}
	.st172{fill:#2F7463;stroke:#2F7463;stroke-width:1.51;}
	.st173{fill:#2F6457;stroke:#2F6457;stroke-width:1.51;}
	.st174{fill:#40917A;stroke:#40917A;stroke-width:1.51;}
	.st175{fill:#49927A;stroke:#49927A;stroke-width:1.51;}
	.st176{fill:#2F7A68;stroke:#2F7A68;stroke-width:1.51;}
	.st177{fill:#2F7363;stroke:#2F7363;stroke-width:1.51;}
	.st178{fill:#2F6A5C;stroke:#2F6A5C;stroke-width:1.51;}
	.st179{fill:#59AD8E;stroke:#59AD8E;stroke-width:1.51;}
	.st180{fill:#61C19D;stroke:#61C19D;stroke-width:1.51;}
	.st181{fill:#4E9E84;stroke:#4E9E84;stroke-width:1.51;}
	.st182{fill:#519B80;stroke:#519B80;stroke-width:1.51;}
	.st183{fill:#7DEABD;stroke:#7DEABD;stroke-width:1.51;}
	.st184{fill:#67D9B1;stroke:#67D9B1;stroke-width:1.51;}
	.st185{fill:#86F0C0;stroke:#86F0C0;stroke-width:1.51;}
	.st186{fill:#84EEBF;stroke:#84EEBF;stroke-width:1.51;}
	.st187{fill:#5BAE8F;stroke:#5BAE8F;stroke-width:1.51;}
	.st188{fill:#5EAE8F;stroke:#5EAE8F;stroke-width:1.51;}
	.st189{fill:#5FB494;stroke:#5FB494;stroke-width:1.51;}
	.st190{fill:#61D6AF;stroke:#61D6AF;stroke-width:1.51;}
	.st191{fill:#67D5AE;stroke:#67D5AE;stroke-width:1.51;}
	.st192{fill:#77E6BA;stroke:#77E6BA;stroke-width:1.51;}
	.st193{fill:#63B392;stroke:#63B392;stroke-width:1.51;}
	.st194{fill:#7DEABC;stroke:#7DEABC;stroke-width:1.51;}
	.st195{fill:#80ECBE;stroke:#80ECBE;stroke-width:1.51;}
	.st196{fill:#83EEBF;stroke:#83EEBF;stroke-width:1.51;}
	.st197{fill:#7FEBBD;stroke:#7FEBBD;stroke-width:1.51;}
	.st198{fill:#65C8A4;stroke:#65C8A4;stroke-width:1.51;}
	.st199{fill:#5DAA8C;stroke:#5DAA8C;stroke-width:1.51;}
	.st200{fill:#4E937B;stroke:#4E937B;stroke-width:1.51;}
	.st201{fill:#428B75;stroke:#428B75;stroke-width:1.51;}
	.st202{fill:#3F8470;stroke:#3F8470;stroke-width:1.51;}
	.st203{fill:#36816E;stroke:#36816E;stroke-width:1.51;}
	.st204{fill:#2F7162;stroke:#2F7162;stroke-width:1.51;}
	.st205{fill:#5BA286;stroke:#5BA286;stroke-width:1.51;}
	.st206{fill:#62B292;stroke:#62B292;stroke-width:1.51;}
	.st207{fill:#89F2C1;stroke:#89F2C1;stroke-width:1.51;}
	.st208{fill:#2F6356;stroke:#2F6356;stroke-width:1.51;}
	.st209{fill:#78E7BB;stroke:#78E7BB;stroke-width:1.51;}
	.st210{fill:#2F5F53;stroke:#2F5F53;stroke-width:1.51;}
	.st211{fill:#589C81;stroke:#589C81;stroke-width:1.51;}
	.st212{fill:#488D76;stroke:#488D76;stroke-width:1.51;}
	.st213{fill:#4B8872;stroke:#4B8872;stroke-width:1.51;}
	.st214{fill:#307868;stroke:#307868;stroke-width:1.51;}
	.st215{fill:#337B6A;stroke:#337B6A;stroke-width:1.51;}
	.st216{fill:#66C39F;stroke:#66C39F;stroke-width:1.51;}
	.st217{fill:#69DFB5;stroke:#69DFB5;stroke-width:1.51;}
	.st218{fill:#70E3B8;stroke:#70E3B8;stroke-width:1.51;}
	.st219{fill:#7FECBD;stroke:#7FECBD;stroke-width:1.51;}
	.st220{fill:#8BF3C2;stroke:#8BF3C2;stroke-width:1.51;}
	.st221{fill:#2E564C;stroke:#2E564C;stroke-width:1.51;}
	.st222{fill:#2F685A;stroke:#2F685A;stroke-width:1.51;}
	.st223{fill:#377A68;stroke:#377A68;stroke-width:1.51;}
	.st224{fill:#3B7F6C;stroke:#3B7F6C;stroke-width:1.51;}
	.st225{fill:#87F1C0;stroke:#87F1C0;stroke-width:1.51;}
	.st226{fill:#347766;stroke:#347766;stroke-width:1.51;}
	.st227{fill:#2F6054;stroke:#2F6054;stroke-width:1.51;}
	.st228{fill:#2F5D52;stroke:#2F5D52;stroke-width:1.51;}
	.st229{fill:#59987D;stroke:#59987D;stroke-width:1.51;}
	.st230{fill:#519178;stroke:#519178;stroke-width:1.51;}
	.st231{fill:#2E5349;stroke:#2E5349;stroke-width:1.51;}
	.st232{fill:#41806C;stroke:#41806C;stroke-width:1.51;}
	.st233{fill:#387867;stroke:#387867;stroke-width:1.51;}
	.st234{fill:#307262;stroke:#307262;stroke-width:1.51;}
	.st235{fill:#67CEA8;stroke:#67CEA8;stroke-width:1.51;}
	.st236{fill:#508B73;stroke:#508B73;stroke-width:1.51;}
	.st237{fill:#65B997;stroke:#65B997;stroke-width:1.51;}
	.st238{fill:#2F6357;stroke:#2F6357;stroke-width:1.51;}
	.st239{fill:#2E564B;stroke:#2E564B;stroke-width:1.51;}
	.st240{fill:#56937A;stroke:#56937A;stroke-width:1.51;}
	.st241{fill:#5E9B7F;stroke:#5E9B7F;stroke-width:1.51;}
	.st242{fill:#558D75;stroke:#558D75;stroke-width:1.51;}
	.st243{fill:#8EF5C4;stroke:#8EF5C4;stroke-width:1.51;}
	.st244{fill:#4B816C;stroke:#4B816C;stroke-width:1.51;}
	.st245{fill:#47826E;stroke:#47826E;stroke-width:1.51;}
	.st246{fill:#95F9C6;stroke:#95F9C6;stroke-width:1.51;}
	.st247{fill:#8DF4C3;stroke:#8DF4C3;stroke-width:1.51;}
	.st248{fill:#94F9C6;stroke:#94F9C6;stroke-width:1.51;}
	.st249{fill:#94F8C5;stroke:#94F8C5;stroke-width:1.51;}
	.st250{fill:#3D7866;stroke:#3D7866;stroke-width:1.51;}
	.st251{fill:#518770;stroke:#518770;stroke-width:1.51;}
	.st252{fill:#598D74;stroke:#598D74;stroke-width:1.51;}
	.st253{fill:#5C957B;stroke:#5C957B;stroke-width:1.51;}
	.st254{fill:#61A689;stroke:#61A689;stroke-width:1.51;}
</style>
<path class="st0" d="M1011,482l144,2l-60-37L1011,482z"/>
<path class="st1" d="M1037,722l137-25l-19-213L1037,722z"/>
<path class="st2" d="M1037,722l118-238l-144-2L1037,722z"/>
<path class="st3" d="M931,573l106,149l-26-240L931,573z"/>
<path class="st4" d="M1155,484l22-143l-82,106L1155,484z"/>
<path class="st5" d="M1095,447l-181-93l97,128L1095,447z"/>
<path class="st6" d="M1355,414l-178-73l-22,143L1355,414z"/>
<path class="st1" d="M1174,697l136-146l-155-67L1174,697z"/>
<path class="st7" d="M1011,482l-97-128l17,219L1011,482z"/>
<path class="st8" d="M1177,341l-263,13l181,93L1177,341z"/>
<path class="st9" d="M931,573l-57,120l163,29L931,573z"/>
<path class="st10" d="M725,563l149,130l57-120L725,563z"/>
<path class="st11" d="M1310,551l45-137l-200,70L1310,551z"/>
<path class="st12" d="M914,354l-156,64l173,155L914,354z"/>
<path class="st13" d="M1177,341L991,173l-77,181L1177,341z"/>
<path class="st14" d="M914,354l-170-95l14,159L914,354z"/>
<path class="st15" d="M1383,206l-251-15l45,150L1383,206z"/>
<path class="st16" d="M1174,697l147,92l-11-238L1174,697z"/>
<path class="st17" d="M1310,551l143-28l-98-109L1310,551z"/>
<path class="st18" d="M1186,877l135-88l-147-92L1186,877z"/>
<path class="st19" d="M1186,877l-12-180l-137,25L1186,877z"/>
<path class="st20" d="M941,890l65-6l31-162L941,890z"/>
<path class="st21" d="M1006,884l180-7l-149-155L1006,884z"/>
<path class="st22" d="M758,418l-33,145l206,10L758,418z"/>
<path class="st23" d="M874,693l67,197l96-168L874,693z"/>
<path class="st24" d="M1397,743l56-220l-143,28L1397,743z"/>
<path class="st25" d="M1132,191l-141-18l186,168L1132,191z"/>
<path class="st26" d="M1321,789l76-46l-87-192L1321,789z"/>
<path class="st27" d="M1483,808l-86-65l-76,46L1483,808z"/>
<path class="st28" d="M1006,884l-7,67l187-74L1006,884z"/>
<path class="st29" d="M789,908l152-18l-67-197L789,908z"/>
<path class="st30" d="M991,173l-68-3l-9,184L991,173z"/>
<path class="st31" d="M725,563l-12,122l161,8L725,563z"/>
<path class="st32" d="M941,890l58,61l7-67L941,890z"/>
<path class="st33" d="M887,977l112-26l-58-61L887,977z"/>
<path class="st34" d="M923,170l-179,89l170,95L923,170z"/>
<path class="st35" d="M549,495l63,216l113-148L549,495z"/>
<path class="st36" d="M725,563L612,711l101-26L725,563z"/>
<path class="st37" d="M1355,414l28-208l-206,135L1355,414z"/>
<path class="st38" d="M1132,191l3-142L991,173L1132,191z"/>
<path class="st39" d="M1514,392l-131-186l-28,208L1514,392z"/>
<path class="st40" d="M1453,523l61-131l-159,22L1453,523z"/>
<path class="st41" d="M1642,591l-128-199l-61,131L1642,591z"/>
<path class="st42" d="M1186,877l142,62l-7-150L1186,877z"/>
<path class="st43" d="M1193,1033l135-94l-142-62L1193,1033z"/>
<path class="st44" d="M713,685l76,223l85-215L713,685z"/>
<path class="st45" d="M999,951l194,82l-7-156L999,951z"/>
<path class="st46" d="M789,908l98,69l54-87L789,908z"/>
<path class="st47" d="M1397,743l141,3l-85-223L1397,743z"/>
<path class="st48" d="M1328,939l155-131l-162-19L1328,939z"/>
<path class="st49" d="M1298,49h-163l-3,142L1298,49z"/>
<path class="st50" d="M991,27L890,62l33,108L991,27z"/>
<path class="st50" d="M923,170l-189-64l10,153L923,170z"/>
<path class="st51" d="M549,495l176,68l33-145L549,495z"/>
<path class="st52" d="M713,685l-90,195l166,28L713,685z"/>
<path class="st53" d="M1483,808l55-62l-141-3L1483,808z"/>
<path class="st54" d="M991,27l-68,143l68,3V27z"/>
<path class="st55" d="M1096,1094l97-61l-194-82L1096,1094z"/>
<path class="st56" d="M1135,49L991,27v146L1135,49z"/>
<path class="st57" d="M1383,206l-85-157l-166,142L1383,206z"/>
<path class="st58" d="M1538,746l59-67l-144-156L1538,746z"/>
<path class="st59" d="M526,425l23,70l209-77L526,425z"/>
<path class="st60" d="M628,215l130,203l-14-159L628,215z"/>
<path class="st61" d="M1514,392l30-149l-161-37L1514,392z"/>
<path class="st62" d="M1673,337l-129-94l-30,149L1673,337z"/>
<path class="st63" d="M890,62l-156,44l189,64L890,62z"/>
<path class="st64" d="M734,106L628,215l116,44L734,106z"/>
<path class="st65" d="M887,977l209,117l-97-143L887,977z"/>
<path class="st66" d="M1597,679l45-88l-189-68L1597,679z"/>
<path class="st67" d="M434,722l189,158l-11-169L434,722z"/>
<path class="st54" d="M628,215L526,425l232-7L628,215z"/>
<path class="st68" d="M789,908l-13,135l111-66L789,908z"/>
<path class="st69" d="M887,977l-65,207l274-90L887,977z"/>
<path class="st70" d="M612,711l11,169l90-195L612,711z"/>
<path class="st71" d="M479,540l133,171l-63-216L479,540z"/>
<path class="st72" d="M623,880l153,163l13-135L623,880z"/>
<path class="st73" d="M526,425l-47,115l70-45L526,425z"/>
<path class="st74" d="M1538,746l170,132l-111-199L1538,746z"/>
<path class="st75" d="M1597,679l239,44l-194-132L1597,679z"/>
<path class="st76" d="M1483,808l225,70l-170-132L1483,808z"/>
<path class="st77" d="M1328,939l178,26l-23-157L1328,939z"/>
<path class="st78" d="M1317,1200l189-235l-178-26L1317,1200z"/>
<path class="st76" d="M1248,1131l80-192l-135,94L1248,1131z"/>
<path class="st79" d="M1559,104l-261-55l85,157L1559,104z"/>
<path class="st80" d="M1096,1094l152,37l-55-98L1096,1094z"/>
<path class="st81" d="M1317,1200l-69-69l-9,236L1317,1200z"/>
<path class="st82" d="M1642,591l31-254l-159,55L1642,591z"/>
<path class="st83" d="M1544,243l15-139l-176,102L1544,243z"/>
<path class="st84" d="M472,138l-53,193l209-116L472,138z"/>
<path class="st85" d="M1683,291l-124-187l-15,139L1683,291z"/>
<path class="st86" d="M1780,225l-97,66l140,36L1780,225z"/>
<path class="st87" d="M1673,337l10-46l-139-48L1673,337z"/>
<path class="st88" d="M776,1043l46,141l65-207L776,1043z"/>
<path class="st89" d="M564,1037l172,63l40-57L564,1037z"/>
<path class="st90" d="M479,540l-45,182l178-11L479,540z"/>
<path class="st91" d="M623,880l-59,157l212,6L623,880z"/>
<path class="st92" d="M526,425l-107-94l60,209L526,425z"/>
<path class="st93" d="M479,540l-182-1l137,183L479,540z"/>
<path class="st94" d="M628,215L419,331l107,94L628,215z"/>
<path class="st95" d="M585,45l43,170l106-109L585,45z"/>
<path class="st96" d="M736,1100l86,84l-46-141L736,1100z"/>
<path class="st78" d="M1248,1131l69,69l11-261L1248,1131z"/>
<path class="st97" d="M988,1271l260-140l-152-37L988,1271z"/>
<path class="st98" d="M1506,965l202-87l-225-70L1506,965z"/>
<path class="st99" d="M1642,591l180-53l-149-201L1642,591z"/>
<path class="st100" d="M1675,1056l33-178l-202,87L1675,1056z"/>
<path class="st101" d="M419,886l145,151l59-157L419,886z"/>
<path class="st102" d="M736,1100l-28,244l114-160L736,1100z"/>
<path class="st103" d="M585,45l-113,93l156,77L585,45z"/>
<path class="st104" d="M385,174l87-36L326,25L385,174z"/>
<path class="st105" d="M1836,723l-14-185l-180,53L1836,723z"/>
<path class="st106" d="M1683,291l79-158l-203-29L1683,291z"/>
<path class="st107" d="M822,1184l166,87l108-177L822,1184z"/>
<path class="st108" d="M323,886h96l15-164L323,886z"/>
<path class="st109" d="M434,722l-15,164l204-6L434,722z"/>
<path class="st110" d="M1823,327l-140-36l-10,46L1823,327z"/>
<path class="st111" d="M1317,1200l239-62l-50-173L1317,1200z"/>
<path class="st112" d="M1822,538l1-211l-150,10L1822,538z"/>
<path class="st113" d="M1822,538l107-29l-106-182L1822,538z"/>
<path class="st114" d="M1813,805l23-82l-239-44L1813,805z"/>
<path class="st98" d="M1813,805l-216-126l111,199L1813,805z"/>
<path class="st115" d="M1764,1006l49-201l-105,73L1764,1006z"/>
<path class="st116" d="M472,138l-87,36l34,157L472,138z"/>
<path class="st117" d="M419,331L297,539l182,1L419,331z"/>
<path class="st118" d="M223,407l74,132l122-208L223,407z"/>
<path class="st119" d="M822,1184l113,125l53-38L822,1184z"/>
<path class="st120" d="M1239,1367l151-61l-73-106L1239,1367z"/>
<path class="st121" d="M1317,1200l73,106l166-168L1317,1200z"/>
<path class="st122" d="M708,1344l227-35l-113-125L708,1344z"/>
<path class="st123" d="M1556,1138l119-82l-169-91L1556,1138z"/>
<path class="st124" d="M1964,241l-202-108l18,92L1964,241z"/>
<path class="st125" d="M1780,225l-18-92l-79,158L1780,225z"/>
<path class="st126" d="M1556,1138l128-43l-9-39L1556,1138z"/>
<path class="st127" d="M1675,1056l89-50l-56-128L1675,1056z"/>
<path class="st128" d="M1684,1095l80-89l-89,50L1684,1095z"/>
<path class="st97" d="M1958,647l-136-109l14,185L1958,647z"/>
<path class="st129" d="M1239,1367l9-236l-260,140L1239,1367z"/>
<path class="st130" d="M1556,1138l134,111l-6-154L1556,1138z"/>
<path class="st131" d="M564,1037l-48,138l220-75L564,1037z"/>
<path class="st132" d="M419,886l-45,113l190,38L419,886z"/>
<path class="st133" d="M274,755l49,131l111-164L274,755z"/>
<path class="st134" d="M297,539l-23,216l160-33L297,539z"/>
<path class="st135" d="M935,1309l304,58l-251-96L935,1309z"/>
<path class="st136" d="M323,962l51,37l45-113L323,962z"/>
<path class="st137" d="M1823,327l141-86l-184-16L1823,327z"/>
<path class="st74" d="M1958,647l-29-138l-107,29L1958,647z"/>
<path class="st129" d="M1958,647l-122,76l105,120L1958,647z"/>
<path class="st138" d="M1929,509l-17-167l-89-15L1929,509z"/>
<path class="st139" d="M374,999l142,176l48-138L374,999z"/>
<path class="st140" d="M231,281l-8,126l196-76L231,281z"/>
<path class="st141" d="M231,281l188,50l-34-157L231,281z"/>
<path class="st142" d="M297,539L101,752l173,3L297,539z"/>
<path class="st143" d="M374,999l78,193l64-17L374,999z"/>
<path class="st144" d="M323,886v76l96-76H323z"/>
<path class="st145" d="M175,939l148,23v-76L175,939z"/>
<path class="st146" d="M1941,843l-105-120l-23,82L1941,843z"/>
<path class="st147" d="M2148,442l-184-201l-52,101L2148,442z"/>
<path class="st148" d="M326,25l-95,256l154-107L326,25z"/>
<path class="st149" d="M935,1309l-227,35l531,23L935,1309z"/>
<path class="st150" d="M516,1175l192,169l28-244L516,1175z"/>
<path class="st151" d="M1239,1367l225-10l-74-51L1239,1367z"/>
<path class="st151" d="M1390,1306l74,51l92-219L1390,1306z"/>
<path class="st128" d="M1970,973l-29-130l-177,163L1970,973z"/>
<path class="st152" d="M516,1175l9,186l183-17L516,1175z"/>
<path class="st153" d="M253,1175l199,17l-78-193L253,1175z"/>
<path class="st130" d="M1792,1176l-28-170l-80,89L1792,1176z"/>
<path class="st154" d="M1764,1006l177-163l-128-38L1764,1006z"/>
<path class="st155" d="M1912,342l52-101l-141,86L1912,342z"/>
<path class="st156" d="M2148,442l-236-100l17,167L2148,442z"/>
<path class="st157" d="M1464,1357l226-108l-134-111L1464,1357z"/>
<path class="st158" d="M1690,1249l102-73l-108-81L1690,1249z"/>
<path class="st97" d="M1958,647l122-97l-151-41L1958,647z"/>
<path class="st159" d="M1941,843l110-166l-93-30L1941,843z"/>
<path class="st160" d="M2102,867l-51-190l-110,166L2102,867z"/>
<path class="st161" d="M1942,1140l28-167l-206,33L1942,1140z"/>
<path class="st162" d="M323,962l-70,213l121-176L323,962z"/>
<path class="st163" d="M274,755l-99,184l148-53L274,755z"/>
<path class="st164" d="M126,879l49,60l99-184L126,879z"/>
<path class="st165" d="M101,752l196-213l-239-1L101,752z"/>
<path class="st166" d="M708,1344l-183,17l714,6L708,1344z"/>
<path class="st167" d="M452,1192l73,169l-9-186L452,1192z"/>
<path class="st168" d="M393,1330l132,31l-73-169L393,1330z"/>
<path class="st169" d="M2051,677l29-127l-122,97L2051,677z"/>
<path class="st170" d="M65,109l34,179l132-7L65,109z"/>
<path class="st171" d="M58,538l239,1l-74-132L58,538z"/>
<path class="st172" d="M99,288l124,119l8-126L99,288z"/>
<path class="st173" d="M65,109l166,172l95-256L65,109z"/>
<path class="st174" d="M101,752l25,127l148-124L101,752z"/>
<path class="st175" d="M18,1033l157-94l-49-60L18,1033z"/>
<path class="st176" d="M57,357l1,181l165-131L57,357z"/>
<path class="st177" d="M99,288l-42,69l166,50L99,288z"/>
<path class="st178" d="M-66,344l123,13l42-69L-66,344z"/>
<path class="st179" d="M1964,241l56-214l-258,106L1964,241z"/>
<path class="st180" d="M2148,442l-83-251l-101,50L2148,442z"/>
<path class="st181" d="M175,939l78,236l70-213L175,939z"/>
<path class="st182" d="M82,1112l171,63l-78-236L82,1112z"/>
<path class="st183" d="M1792,1176l150-36l-178-134L1792,1176z"/>
<path class="st184" d="M2148,442l-68,108l208-39L2148,442z"/>
<path class="st185" d="M1920,1341l22-201l-150,36L1920,1341z"/>
<path class="st186" d="M1821,1363l-29-187l-102,73L1821,1363z"/>
<path class="st187" d="M253,1175l140,155l59-138L253,1175z"/>
<path class="st188" d="M2064,107l-44-80l-56,214L2064,107z"/>
<path class="st189" d="M2065,191l-1-84l-100,134L2065,191z"/>
<path class="st190" d="M2080,550l68-108l-219,67L2080,550z"/>
<path class="st191" d="M2203,421l-55,21l140,69L2203,421z"/>
<path class="st192" d="M2102,867l-161-24l29,130L2102,867z"/>
<path class="st193" d="M2298,123l-234-16l1,84L2298,123z"/>
<path class="st194" d="M2127,997l-25-130l-132,106L2127,997z"/>
<path class="st195" d="M1942,1140l185-143l-157-24L1942,1140z"/>
<path class="st196" d="M1464,1357l357,6l-131-114L1464,1357z"/>
<path class="st197" d="M1239,1367l582-4l-357-6L1239,1367z"/>
<path class="st198" d="M2148,442l55-21l-138-230L2148,442z"/>
<path class="st159" d="M2243,639l-163-89l-29,127L2243,639z"/>
<path class="st185" d="M2159,1106l-32-109l-185,143L2159,1106z"/>
<path class="st121" d="M2102,867l141-228l-192,38L2102,867z"/>
<path class="st199" d="M253,1175l-29,138l169,17L253,1175z"/>
<path class="st200" d="M18,1033l64,79l93-173L18,1033z"/>
<path class="st201" d="M-13,901l139-22l-25-127L-13,901z"/>
<path class="st202" d="M-138,743l125,158l114-149L-138,743z"/>
<path class="st203" d="M-93,656l194,96L58,538L-93,656z"/>
<path class="st204" d="M-66,344L58,538l-1-181L-66,344z"/>
<path class="st205" d="M83,1280l141,33l29-138L83,1280z"/>
<path class="st206" d="M393,1330l-169-17l301,48L393,1330z"/>
<path class="st207" d="M1821,1363l99-22l-128-165L1821,1363z"/>
<path class="st208" d="M-101,239l35,105l165-56L-101,239z"/>
<path class="st209" d="M2257,864l-14-225l-141,228L2257,864z"/>
<path class="st210" d="M65,109l-166,130l200,49L65,109z"/>
<path class="st211" d="M82,1112l1,168l170-105L82,1112z"/>
<path class="st212" d="M-13,901l31,132l108-154L-13,901z"/>
<path class="st213" d="M-13,901l-161,158l192-26L-13,901z"/>
<path class="st214" d="M-149,506l53,91l154-59L-149,506z"/>
<path class="st215" d="M-96,597l3,59L58,538L-96,597z"/>
<path class="st216" d="M2203,421l119-180l-257-50L2203,421z"/>
<path class="st217" d="M2243,639l45-128l-208,39L2243,639z"/>
<path class="st218" d="M2257,864l31-353l-45,128L2257,864z"/>
<path class="st219" d="M2127,997l130-133l-155,3L2127,997z"/>
<path class="st220" d="M1920,1341l134-79l-112-122L1920,1341z"/>
<path class="st220" d="M2054,1262l105-156l-217,34L2054,1262z"/>
<path class="st204" d="M-66,344l-83,162l207,32L-66,344z"/>
<path class="st221" d="M-84,110l-17,129L65,109L-84,110z"/>
<path class="st196" d="M2217,1029l40-165l-130,133L2217,1029z"/>
<path class="st222" d="M-151,369l2,137l83-162L-151,369z"/>
<path class="st223" d="M-96,597l-42,146l45-87L-96,597z"/>
<path class="st224" d="M-93,656l-45,87l239,9L-93,656z"/>
<path class="st225" d="M2159,1106l58-77l-90-32L2159,1106z"/>
<path class="st220" d="M2252,1138l-35-109l-58,77L2252,1138z"/>
<path class="st226" d="M-149,506l11,237l42-146L-149,506z"/>
<path class="st227" d="M-186,288l35,81l85-25L-186,288z"/>
<path class="st228" d="M-186,288l120,56l-35-105L-186,288z"/>
<path class="st229" d="M-10,1265l93,15l-1-168L-10,1265z"/>
<path class="st230" d="M-40,1144l122-32l-64-79L-40,1144z"/>
<path class="st231" d="M-151,138l50,101l17-129L-151,138z"/>
<path class="st232" d="M-138,743l-14,96l139,62L-138,743z"/>
<path class="st233" d="M-149,506l-3,333l14-96L-149,506z"/>
<path class="st234" d="M-186,288l34,551l3-333L-186,288z"/>
<path class="st235" d="M2288,511l34-270l-119,180L2288,511z"/>
<path class="st120" d="M2272,1352l50-1111l-34,270L2272,1352z"/>
<path class="st236" d="M-174,1059l134,85l58-111L-174,1059z"/>
<path class="st237" d="M2322,241l-24-118l-233,68L2322,241z"/>
<path class="st238" d="M-151,369l-35-81l37,218L-151,369z"/>
<path class="st239" d="M-151,138l-35,150l85-49L-151,138z"/>
<path class="st240" d="M-40,1144l30,121l92-153L-40,1144z"/>
<path class="st241" d="M83,1280l-244,67l385-34L83,1280z"/>
<path class="st242" d="M-225,1164l215,101l-30-121L-225,1164z"/>
<path class="st243" d="M2054,1262l198-124l-93-32L2054,1262z"/>
<path class="st185" d="M2217,1029l35,109l5-274L2217,1029z"/>
<path class="st195" d="M2257,864l15,488l16-841L2257,864z"/>
<path class="st244" d="M-225,1164l51-105l22-220L-225,1164z"/>
<path class="st245" d="M-152,839l-22,220l161-158L-152,839z"/>
<path class="st246" d="M2054,1262l218,90l-20-214L2054,1262z"/>
<path class="st247" d="M2252,1138l20,214l-15-488L2252,1138z"/>
<path class="st248" d="M1920,1341l352,11l-218-90L1920,1341z"/>
<path class="st249" d="M1821,1363l451-11l-352-11L1821,1363z"/>
<path class="st250" d="M-186,288l-39,876l73-325L-186,288z"/>
<path class="st251" d="M-174,1059l-51,105l185-20L-174,1059z"/>
<path class="st252" d="M-225,1164l64,183l151-82L-225,1164z"/>
<path class="st253" d="M-10,1265l-151,82l244-67L-10,1265z"/>
<path class="st254" d="M224,1313l-385,34l686,14L224,1313z"/>
</svg>
