<svg xmlns="http://www.w3.org/2000/svg" width="1920" height="1080"><path d="M1079,627L1130,583L867,500Z" fill="#343534" stroke="#343534" stroke-width="1.51"/><path d="M1130,583L1183,426L867,500Z" fill="#343534" stroke="#343534" stroke-width="1.51"/><path d="M1183,426L1034,240L867,500Z" fill="#333333" stroke="#333333" stroke-width="1.51"/><path d="M1034,240L713,477L867,500Z" fill="#313131" stroke="#313131" stroke-width="1.51"/><path d="M709,722L1072,834L1079,627Z" fill="#353937" stroke="#353937" stroke-width="1.51"/><path d="M709,722L1079,627L867,500Z" fill="#343534" stroke="#343534" stroke-width="1.51"/><path d="M1079,627L1072,834L1130,583Z" fill="#363a38" stroke="#363a38" stroke-width="1.51"/><path d="M1130,583L1496,479L1183,426Z" fill="#353a37" stroke="#353a37" stroke-width="1.51"/><path d="M713,477L709,722L867,500Z" fill="#323332" stroke="#323332" stroke-width="1.51"/><path d="M1072,834L1173,942L1130,583Z" fill="#373f3b" stroke="#373f3b" stroke-width="1.51"/><path d="M1057,1105L1173,942L1072,834Z" fill="#38443f" stroke="#38443f" stroke-width="1.51"/><path d="M1183,426L1341,82L1034,240Z" fill="#323634" stroke="#323634" stroke-width="1.51"/><path d="M1495,703L1496,479L1130,583Z" fill="#373e3a" stroke="#373e3a" stroke-width="1.51"/><path d="M1173,942L1495,703L1130,583Z" fill="#37413c" stroke="#37413c" stroke-width="1.51"/><path d="M1496,479L1341,82L1183,426Z" fill="#343a37" stroke="#343a37" stroke-width="1.51"/><path d="M713,477L426,581L709,722Z" fill="#313232" stroke="#313232" stroke-width="1.51"/><path d="M577,31L499,331L713,477Z" fill="#2f2f2f" stroke="#2f2f2f" stroke-width="1.51"/><path d="M577,31L713,477L1034,240Z" fill="#2f2f2f" stroke="#2f2f2f" stroke-width="1.51"/><path d="M709,722L748,1002L1072,834Z" fill="#363d39" stroke="#363d39" stroke-width="1.51"/><path d="M417,924L748,1002L709,722Z" fill="#343c38" stroke="#343c38" stroke-width="1.51"/><path d="M499,331L426,581L713,477Z" fill="#303030" stroke="#303030" stroke-width="1.51"/><path d="M748,1002L1057,1105L1072,834Z" fill="#37413d" stroke="#37413d" stroke-width="1.51"/><path d="M1566,1007L1704,717L1495,703Z" fill="#3a4b43" stroke="#3a4b43" stroke-width="1.51"/><path d="M686,-91L577,31L1034,240Z" fill="#2e2e2e" stroke="#2e2e2e" stroke-width="1.51"/><path d="M499,331L262,285L426,581Z" fill="#2e2e2e" stroke="#2e2e2e" stroke-width="1.51"/><path d="M577,31L435,178L499,331Z" fill="#2d2d2d" stroke="#2d2d2d" stroke-width="1.51"/><path d="M64,37L262,285L435,178Z" fill="#2c2c2c" stroke="#2c2c2c" stroke-width="1.51"/><path d="M979,-237L686,-91L1034,240Z" fill="#2e2e2e" stroke="#2e2e2e" stroke-width="1.51"/><path d="M1341,82L1237,-153L1034,240Z" fill="#313533" stroke="#313533" stroke-width="1.51"/><path d="M1495,703L1704,717L1496,479Z" fill="#38443f" stroke="#38443f" stroke-width="1.51"/><path d="M1496,479L1605,45L1341,82Z" fill="#343d39" stroke="#343d39" stroke-width="1.51"/><path d="M1341,82L1418,-239L1237,-153Z" fill="#313734" stroke="#313734" stroke-width="1.51"/><path d="M1566,1007L1495,703L1173,942Z" fill="#3a4942" stroke="#3a4942" stroke-width="1.51"/><path d="M748,1002L696,1194L1057,1105Z" fill="#38453f" stroke="#38453f" stroke-width="1.51"/><path d="M426,581L417,924L709,722Z" fill="#333735" stroke="#333735" stroke-width="1.51"/><path d="M61,602L417,924L426,581Z" fill="#313432" stroke="#313432" stroke-width="1.51"/><path d="M1237,-153L979,-237L1034,240Z" fill="#2f3130" stroke="#2f3130" stroke-width="1.51"/><path d="M1805,124L1605,45L1496,479Z" fill="#35413b" stroke="#35413b" stroke-width="1.51"/><path d="M1331,1279L1566,1007L1173,942Z" fill="#3b4e45" stroke="#3b4e45" stroke-width="1.51"/><path d="M417,924L696,1194L748,1002Z" fill="#36413c" stroke="#36413c" stroke-width="1.51"/><path d="M1057,1105L1331,1279L1173,942Z" fill="#3a4b43" stroke="#3a4b43" stroke-width="1.51"/><path d="M435,178L262,285L499,331Z" fill="#2d2d2d" stroke="#2d2d2d" stroke-width="1.51"/><path d="M503,-224L435,178L577,31Z" fill="#2c2c2c" stroke="#2c2c2c" stroke-width="1.51"/><path d="M1704,717L1801,522L1496,479Z" fill="#38453f" stroke="#38453f" stroke-width="1.51"/><path d="M1992,666L1801,522L1704,717Z" fill="#3a4b43" stroke="#3a4b43" stroke-width="1.51"/><path d="M686,-91L503,-224L577,31Z" fill="#2c2c2c" stroke="#2c2c2c" stroke-width="1.51"/><path d="M979,-237L761,-304L686,-91Z" fill="#2c2c2c" stroke="#2c2c2c" stroke-width="1.51"/><path d="M1605,45L1418,-239L1341,82Z" fill="#323a36" stroke="#323a36" stroke-width="1.51"/><path d="M1237,-153L1283,-375L979,-237Z" fill="#2e3130" stroke="#2e3130" stroke-width="1.51"/><path d="M979,-237L894,-509L761,-304Z" fill="#2b2b2b" stroke="#2b2b2b" stroke-width="1.51"/><path d="M1275,1473L1331,1279L1057,1105Z" fill="#3c5248" stroke="#3c5248" stroke-width="1.51"/><path d="M1801,522L1805,124L1496,479Z" fill="#37433d" stroke="#37433d" stroke-width="1.51"/><path d="M1605,45L1683,-83L1418,-239Z" fill="#323c38" stroke="#323c38" stroke-width="1.51"/><path d="M761,-304L503,-224L686,-91Z" fill="#2b2b2b" stroke="#2b2b2b" stroke-width="1.51"/><path d="M1805,124L1683,-83L1605,45Z" fill="#34403b" stroke="#34403b" stroke-width="1.51"/><path d="M1801,522L1941,203L1805,124Z" fill="#37463f" stroke="#37463f" stroke-width="1.51"/><path d="M1566,1007L1824,891L1704,717Z" fill="#3b5046" stroke="#3b5046" stroke-width="1.51"/><path d="M1608,1207L1824,891L1566,1007Z" fill="#3c5449" stroke="#3c5449" stroke-width="1.51"/><path d="M1540,-304L1283,-375L1418,-239Z" fill="#303734" stroke="#303734" stroke-width="1.51"/><path d="M1418,-239L1283,-375L1237,-153Z" fill="#2f3532" stroke="#2f3532" stroke-width="1.51"/><path d="M1331,1279L1608,1207L1566,1007Z" fill="#3c554a" stroke="#3c554a" stroke-width="1.51"/><path d="M262,285L61,602L426,581Z" fill="#2e2e2e" stroke="#2e2e2e" stroke-width="1.51"/><path d="M337,1257L541,1378L696,1194Z" fill="#374941" stroke="#374941" stroke-width="1.51"/><path d="M-109,573L61,602L-118,451Z" fill="#2d2d2d" stroke="#2d2d2d" stroke-width="1.51"/><path d="M1683,-83L1540,-304L1418,-239Z" fill="#313b36" stroke="#313b36" stroke-width="1.51"/><path d="M1805,124L2016,-98L1683,-83Z" fill="#35433d" stroke="#35433d" stroke-width="1.51"/><path d="M1683,-83L1668,-441L1540,-304Z" fill="#313c37" stroke="#313c37" stroke-width="1.51"/><path d="M2121,301L1941,203L1801,522Z" fill="#384942" stroke="#384942" stroke-width="1.51"/><path d="M1824,891L1992,666L1704,717Z" fill="#3b4f46" stroke="#3b4f46" stroke-width="1.51"/><path d="M2118,862L1992,666L1824,891Z" fill="#3c554a" stroke="#3c554a" stroke-width="1.51"/><path d="M924,1600L1275,1473L1057,1105Z" fill="#3c5248" stroke="#3c5248" stroke-width="1.51"/><path d="M337,1257L696,1194L417,924Z" fill="#36433d" stroke="#36433d" stroke-width="1.51"/><path d="M924,1600L1057,1105L696,1194Z" fill="#3a4b44" stroke="#3a4b44" stroke-width="1.51"/><path d="M1331,1279L1514,1522L1608,1207Z" fill="#3d5a4e" stroke="#3d5a4e" stroke-width="1.51"/><path d="M1668,-441L894,-509L1283,-375Z" fill="#2d3230" stroke="#2d3230" stroke-width="1.51"/><path d="M1283,-375L894,-509L979,-237Z" fill="#2c2d2d" stroke="#2c2d2d" stroke-width="1.51"/><path d="M761,-304L532,-467L503,-224Z" fill="#2a2a2a" stroke="#2a2a2a" stroke-width="1.51"/><path d="M212,1146L337,1257L417,924Z" fill="#35423c" stroke="#35423c" stroke-width="1.51"/><path d="M61,602L138,1037L417,924Z" fill="#323935" stroke="#323935" stroke-width="1.51"/><path d="M138,1037L212,1146L417,924Z" fill="#343f3a" stroke="#343f3a" stroke-width="1.51"/><path d="M158,-240L64,37L435,178Z" fill="#2a2a2a" stroke="#2a2a2a" stroke-width="1.51"/><path d="M158,-240L435,178L503,-224Z" fill="#2a2a2a" stroke="#2a2a2a" stroke-width="1.51"/><path d="M894,-509L532,-467L761,-304Z" fill="#2a2a2a" stroke="#2a2a2a" stroke-width="1.51"/><path d="M664,1563L924,1600L696,1194Z" fill="#3a5046" stroke="#3a5046" stroke-width="1.51"/><path d="M1764,1453L1771,1315L1608,1207Z" fill="#3e6051" stroke="#3e6051" stroke-width="1.51"/><path d="M1608,1207L1771,1315L1824,891Z" fill="#3d5a4d" stroke="#3d5a4d" stroke-width="1.51"/><path d="M1514,1522L1331,1279L1275,1473Z" fill="#3d5b4e" stroke="#3d5b4e" stroke-width="1.51"/><path d="M541,1378L664,1563L696,1194Z" fill="#394d44" stroke="#394d44" stroke-width="1.51"/><path d="M456,1630L664,1563L541,1378Z" fill="#395147" stroke="#395147" stroke-width="1.51"/><path d="M757,1684L664,1563L456,1630Z" fill="#3a5549" stroke="#3a5549" stroke-width="1.51"/><path d="M-118,451L61,602L262,285Z" fill="#2d2d2d" stroke="#2d2d2d" stroke-width="1.51"/><path d="M61,602L-127,834L138,1037Z" fill="#313734" stroke="#313734" stroke-width="1.51"/><path d="M1941,-472L1668,-441L1683,-83Z" fill="#313f39" stroke="#313f39" stroke-width="1.51"/><path d="M1992,666L2121,301L1801,522Z" fill="#3a4b43" stroke="#3a4b43" stroke-width="1.51"/><path d="M2245,242L2121,301L2380,359Z" fill="#395046" stroke="#395046" stroke-width="1.51"/><path d="M152,-397L158,-240L503,-224Z" fill="#282828" stroke="#282828" stroke-width="1.51"/><path d="M64,37L-118,451L262,285Z" fill="#2b2b2b" stroke="#2b2b2b" stroke-width="1.51"/><path d="M-225,60L-118,451L64,37Z" fill="#2a2a2a" stroke="#2a2a2a" stroke-width="1.51"/><path d="M1475,1641L1514,1522L1275,1473Z" fill="#3e6052" stroke="#3e6052" stroke-width="1.51"/><path d="M1540,-304L1668,-441L1283,-375Z" fill="#2f3834" stroke="#2f3834" stroke-width="1.51"/><path d="M2016,-98L1805,124L1941,203Z" fill="#36463f" stroke="#36463f" stroke-width="1.51"/><path d="M2046,1210L2118,862L1824,891Z" fill="#3d5b4e" stroke="#3d5b4e" stroke-width="1.51"/><path d="M2245,242L2016,-98L1941,203Z" fill="#374a41" stroke="#374a41" stroke-width="1.51"/><path d="M924,1600L1256,1697L1275,1473Z" fill="#3d5b4e" stroke="#3d5b4e" stroke-width="1.51"/><path d="M757,1684L935,1674L924,1600Z" fill="#3c564b" stroke="#3c564b" stroke-width="1.51"/><path d="M-109,573L-127,834L61,602Z" fill="#2e3130" stroke="#2e3130" stroke-width="1.51"/><path d="M138,1037L-47,1092L212,1146Z" fill="#33403a" stroke="#33403a" stroke-width="1.51"/><path d="M456,1630L541,1378L337,1257Z" fill="#384d44" stroke="#384d44" stroke-width="1.51"/><path d="M-416,693L-127,834L-109,573Z" fill="#2d312f" stroke="#2d312f" stroke-width="1.51"/><path d="M170,1378L337,1257L212,1146Z" fill="#36473f" stroke="#36473f" stroke-width="1.51"/><path d="M664,1563L757,1684L924,1600Z" fill="#3b564a" stroke="#3b564a" stroke-width="1.51"/><path d="M-127,834L-47,1092L138,1037Z" fill="#323c37" stroke="#323c37" stroke-width="1.51"/><path d="M1771,1315L2046,1210L1824,891Z" fill="#3e5d50" stroke="#3e5d50" stroke-width="1.51"/><path d="M1514,1522L1764,1453L1608,1207Z" fill="#3e6051" stroke="#3e6051" stroke-width="1.51"/><path d="M-47,1092L170,1378L212,1146Z" fill="#34443c" stroke="#34443c" stroke-width="1.51"/><path d="M757,1684L1256,1697L935,1674Z" fill="#3c574c" stroke="#3c574c" stroke-width="1.51"/><path d="M935,1674L1256,1697L924,1600Z" fill="#3d594d" stroke="#3d594d" stroke-width="1.51"/><path d="M1514,1522L1768,1663L1764,1453Z" fill="#3f6756" stroke="#3f6756" stroke-width="1.51"/><path d="M1256,1697L1475,1641L1275,1473Z" fill="#3e6051" stroke="#3e6051" stroke-width="1.51"/><path d="M158,-240L-61,-195L64,37Z" fill="#282828" stroke="#282828" stroke-width="1.51"/><path d="M532,-467L152,-397L503,-224Z" fill="#282828" stroke="#282828" stroke-width="1.51"/><path d="M2008,1543L2046,1210L1771,1315Z" fill="#3f6656" stroke="#3f6656" stroke-width="1.51"/><path d="M2121,301L2245,242L1941,203Z" fill="#384c43" stroke="#384c43" stroke-width="1.51"/><path d="M2267,767L2121,301L1992,666Z" fill="#3b5047" stroke="#3b5047" stroke-width="1.51"/><path d="M170,1378L456,1630L337,1257Z" fill="#374c43" stroke="#374c43" stroke-width="1.51"/><path d="M152,-397L-61,-195L158,-240Z" fill="#272727" stroke="#272727" stroke-width="1.51"/><path d="M2118,862L2267,767L1992,666Z" fill="#3c574b" stroke="#3c574b" stroke-width="1.51"/><path d="M2245,1027L2267,767L2118,862Z" fill="#3e5d4f" stroke="#3e5d4f" stroke-width="1.51"/><path d="M-61,-195L-225,60L64,37Z" fill="#282828" stroke="#282828" stroke-width="1.51"/><path d="M-427,382L-416,693L-109,573Z" fill="#2b2c2b" stroke="#2b2c2b" stroke-width="1.51"/><path d="M2046,1210L2245,1027L2118,862Z" fill="#3e6051" stroke="#3e6051" stroke-width="1.51"/><path d="M1668,-441L1941,-472L894,-509Z" fill="#2f3734" stroke="#2f3734" stroke-width="1.51"/><path d="M2016,-98L1941,-472L1683,-83Z" fill="#33433b" stroke="#33433b" stroke-width="1.51"/><path d="M2353,-338L1941,-472L2016,-98Z" fill="#34473f" stroke="#34473f" stroke-width="1.51"/><path d="M2245,242L2406,-73L2016,-98Z" fill="#374d43" stroke="#374d43" stroke-width="1.51"/><path d="M2267,767L2380,359L2121,301Z" fill="#3b5248" stroke="#3b5248" stroke-width="1.51"/><path d="M2245,1027L2380,359L2267,767Z" fill="#3d5a4d" stroke="#3d5a4d" stroke-width="1.51"/><path d="M2046,1210L2198,1272L2245,1027Z" fill="#3f6655" stroke="#3f6655" stroke-width="1.51"/><path d="M2008,1543L2198,1272L2046,1210Z" fill="#3f6958" stroke="#3f6958" stroke-width="1.51"/><path d="M1475,1641L1768,1663L1514,1522Z" fill="#3f6756" stroke="#3f6756" stroke-width="1.51"/><path d="M1256,1697L1768,1663L1475,1641Z" fill="#3e6555" stroke="#3e6555" stroke-width="1.51"/><path d="M2245,1027L2278,1658L2380,359Z" fill="#3f6454" stroke="#3f6454" stroke-width="1.51"/><path d="M2008,1543L1771,1315L1764,1453Z" fill="#3f6756" stroke="#3f6756" stroke-width="1.51"/><path d="M152,-397L-135,-356L-61,-195Z" fill="#262626" stroke="#262626" stroke-width="1.51"/><path d="M-61,-195L-272,-208L-225,60Z" fill="#272727" stroke="#272727" stroke-width="1.51"/><path d="M-327,-469L-135,-356L152,-397Z" fill="#252525" stroke="#252525" stroke-width="1.51"/><path d="M-209,1550L74,1781L170,1378Z" fill="#364f44" stroke="#364f44" stroke-width="1.51"/><path d="M-127,834L-497,882L-47,1092Z" fill="#303835" stroke="#303835" stroke-width="1.51"/><path d="M-427,382L-109,573L-118,451Z" fill="#2b2b2b" stroke="#2b2b2b" stroke-width="1.51"/><path d="M-427,382L-118,451L-225,60Z" fill="#2a2a2a" stroke="#2a2a2a" stroke-width="1.51"/><path d="M1768,1663L2008,1543L1764,1453Z" fill="#406b59" stroke="#406b59" stroke-width="1.51"/><path d="M-467,64L-427,382L-225,60Z" fill="#282828" stroke="#282828" stroke-width="1.51"/><path d="M-135,-356L-272,-208L-61,-195Z" fill="#262626" stroke="#262626" stroke-width="1.51"/><path d="M2380,359L2406,-73L2245,242Z" fill="#395147" stroke="#395147" stroke-width="1.51"/><path d="M2008,1543L2236,1420L2198,1272Z" fill="#406e5b" stroke="#406e5b" stroke-width="1.51"/><path d="M2198,1272L2236,1420L2245,1027Z" fill="#3f6a58" stroke="#3f6a58" stroke-width="1.51"/><path d="M-272,-208L-467,64L-225,60Z" fill="#272727" stroke="#272727" stroke-width="1.51"/><path d="M-427,382L-497,882L-416,693Z" fill="#2c2e2d" stroke="#2c2e2d" stroke-width="1.51"/><path d="M-416,693L-497,882L-127,834Z" fill="#2e3431" stroke="#2e3431" stroke-width="1.51"/><path d="M170,1378L74,1781L456,1630Z" fill="#385247" stroke="#385247" stroke-width="1.51"/><path d="M-467,64L-497,882L-427,382Z" fill="#2a2a2a" stroke="#2a2a2a" stroke-width="1.51"/><path d="M2406,-73L2353,-338L2016,-98Z" fill="#364d43" stroke="#364d43" stroke-width="1.51"/><path d="M-209,1550L170,1378L-47,1092Z" fill="#35473f" stroke="#35473f" stroke-width="1.51"/><path d="M456,1630L74,1781L757,1684Z" fill="#395448" stroke="#395448" stroke-width="1.51"/><path d="M757,1684L74,1781L1256,1697Z" fill="#3b554a" stroke="#3b554a" stroke-width="1.51"/><path d="M1256,1697L2051,1778L1768,1663Z" fill="#3f6a58" stroke="#3f6a58" stroke-width="1.51"/><path d="M-371,1442L-209,1550L-47,1092Z" fill="#33473e" stroke="#33473e" stroke-width="1.51"/><path d="M-497,882L-426,1297L-47,1092Z" fill="#313d37" stroke="#313d37" stroke-width="1.51"/><path d="M2008,1543L2278,1658L2236,1420Z" fill="#41735e" stroke="#41735e" stroke-width="1.51"/><path d="M1768,1663L2051,1778L2008,1543Z" fill="#40705c" stroke="#40705c" stroke-width="1.51"/><path d="M74,1781L2051,1778L1256,1697Z" fill="#3d5b4e" stroke="#3d5b4e" stroke-width="1.51"/><path d="M-135,-356L-327,-469L-272,-208Z" fill="#252525" stroke="#252525" stroke-width="1.51"/><path d="M-272,-208L-327,-469L-467,64Z" fill="#252525" stroke="#252525" stroke-width="1.51"/><path d="M532,-467L-327,-469L152,-397Z" fill="#262626" stroke="#262626" stroke-width="1.51"/><path d="M894,-509L-327,-469L532,-467Z" fill="#272727" stroke="#272727" stroke-width="1.51"/><path d="M-426,1297L-371,1442L-47,1092Z" fill="#33443c" stroke="#33443c" stroke-width="1.51"/><path d="M-209,1550L-79,1775L74,1781Z" fill="#365045" stroke="#365045" stroke-width="1.51"/><path d="M-490,1862L-79,1775L-209,1550Z" fill="#354f44" stroke="#354f44" stroke-width="1.51"/><path d="M2051,1778L2278,1658L2008,1543Z" fill="#41745f" stroke="#41745f" stroke-width="1.51"/><path d="M2236,1420L2278,1658L2245,1027Z" fill="#406f5b" stroke="#406f5b" stroke-width="1.51"/><path d="M-371,1442L-490,1862L-209,1550Z" fill="#344f43" stroke="#344f43" stroke-width="1.51"/><path d="M-79,1775L-490,1862L74,1781Z" fill="#355044" stroke="#355044" stroke-width="1.51"/><path d="M74,1781L-490,1862L2051,1778Z" fill="#3a5449" stroke="#3a5449" stroke-width="1.51"/><path d="M-426,1297L-490,1862L-371,1442Z" fill="#334b41" stroke="#334b41" stroke-width="1.51"/><path d="M-497,882L-490,1862L-426,1297Z" fill="#32453d" stroke="#32453d" stroke-width="1.51"/></svg>