<svg xmlns="http://www.w3.org/2000/svg" width="1920" height="1080"><path d="M950,425L913,662L1210,440Z" fill="#121212" stroke="#121212" stroke-width="1.51"/><path d="M913,662L976,819L1210,440Z" fill="#141414" stroke="#141414" stroke-width="1.51"/><path d="M1332,1064L1576,489L1210,440Z" fill="#181818" stroke="#181818" stroke-width="1.51"/><path d="M976,819L1332,1064L1210,440Z" fill="#171717" stroke="#171717" stroke-width="1.51"/><path d="M1332,1064L1710,915L1576,489Z" fill="#1b1b1b" stroke="#1b1b1b" stroke-width="1.51"/><path d="M950,425L322,652L913,662Z" fill="#101010" stroke="#101010" stroke-width="1.51"/><path d="M913,662L298,1030L976,819Z" fill="#151515" stroke="#151515" stroke-width="1.51"/><path d="M862,-188L390,244L950,425Z" fill="#0c0c0c" stroke="#0c0c0c" stroke-width="1.51"/><path d="M862,-188L950,425L1008,-248Z" fill="#0c0c0c" stroke="#0c0c0c" stroke-width="1.51"/><path d="M390,244L322,652L950,425Z" fill="#0d0d0d" stroke="#0d0d0d" stroke-width="1.51"/><path d="M976,819L726,1383L1332,1064Z" fill="#191919" stroke="#191919" stroke-width="1.51"/><path d="M1008,-248L950,425L1210,440Z" fill="#0f0f0f" stroke="#0f0f0f" stroke-width="1.51"/><path d="M1576,489L1482,-140L1210,440Z" fill="#141414" stroke="#141414" stroke-width="1.51"/><path d="M2162,168L1482,-140L1576,489Z" fill="#171717" stroke="#171717" stroke-width="1.51"/><path d="M1482,-140L1008,-248L1210,440Z" fill="#101010" stroke="#101010" stroke-width="1.51"/><path d="M1710,915L2202,604L1576,489Z" fill="#1c1c1c" stroke="#1c1c1c" stroke-width="1.51"/><path d="M1332,1064L1775,1103L1710,915Z" fill="#1f1f1f" stroke="#1f1f1f" stroke-width="1.51"/><path d="M298,1030L726,1383L976,819Z" fill="#171717" stroke="#171717" stroke-width="1.51"/><path d="M1332,1064L1644,1733L1775,1103Z" fill="#212121" stroke="#212121" stroke-width="1.51"/><path d="M322,652L298,1030L913,662Z" fill="#121212" stroke="#121212" stroke-width="1.51"/><path d="M1008,-248L1053,-474L862,-188Z" fill="#090909" stroke="#090909" stroke-width="1.51"/><path d="M862,-188L167,-280L390,244Z" fill="#060606" stroke="#060606" stroke-width="1.51"/><path d="M1482,-140L1053,-474L1008,-248Z" fill="#0d0d0d" stroke="#0d0d0d" stroke-width="1.51"/><path d="M1644,1733L1951,1125L1775,1103Z" fill="#222222" stroke="#222222" stroke-width="1.51"/><path d="M1775,1103L1951,1125L1710,915Z" fill="#212121" stroke="#212121" stroke-width="1.51"/><path d="M726,1383L1181,1686L1332,1064Z" fill="#1b1b1b" stroke="#1b1b1b" stroke-width="1.51"/><path d="M298,1030L640,1546L726,1383Z" fill="#181818" stroke="#181818" stroke-width="1.51"/><path d="M640,1546L1181,1686L726,1383Z" fill="#171717" stroke="#171717" stroke-width="1.51"/><path d="M1951,1125L2202,604L1710,915Z" fill="#1f1f1f" stroke="#1f1f1f" stroke-width="1.51"/><path d="M2202,604L2162,168L1576,489Z" fill="#1a1a1a" stroke="#1a1a1a" stroke-width="1.51"/><path d="M1482,-140L1522,-834L1053,-474Z" fill="#0f0f0f" stroke="#0f0f0f" stroke-width="1.51"/><path d="M390,244L-160,190L322,652Z" fill="#090909" stroke="#090909" stroke-width="1.51"/><path d="M-450,930L-38,1264L298,1030Z" fill="#141414" stroke="#141414" stroke-width="1.51"/><path d="M544,-634L167,-280L862,-188Z" fill="#050505" stroke="#050505" stroke-width="1.51"/><path d="M167,-280L-160,190L390,244Z" fill="#040504" stroke="#040504" stroke-width="1.51"/><path d="M1181,1686L1644,1733L1332,1064Z" fill="#1c1c1c" stroke="#1c1c1c" stroke-width="1.51"/><path d="M1053,-474L544,-634L862,-188Z" fill="#080808" stroke="#080808" stroke-width="1.51"/><path d="M298,1030L-38,1264L640,1546Z" fill="#171717" stroke="#171717" stroke-width="1.51"/><path d="M-450,930L298,1030L322,652Z" fill="#101010" stroke="#101010" stroke-width="1.51"/><path d="M2425,-111L2211,-194L2162,168Z" fill="#131313" stroke="#131313" stroke-width="1.51"/><path d="M2162,168L2211,-194L1482,-140Z" fill="#171717" stroke="#171717" stroke-width="1.51"/><path d="M1053,-474L1522,-834L544,-634Z" fill="#0b0b0b" stroke="#0b0b0b" stroke-width="1.51"/><path d="M544,-634L305,-599L167,-280Z" fill="#030403" stroke="#030403" stroke-width="1.51"/><path d="M-388,-342L-639,428L-160,190Z" fill="#030403" stroke="#030403" stroke-width="1.51"/><path d="M2023,-696L1522,-834L1482,-140Z" fill="#141414" stroke="#141414" stroke-width="1.51"/><path d="M544,-634L-24,-890L305,-599Z" fill="#020302" stroke="#020302" stroke-width="1.51"/><path d="M2211,-194L2023,-696L1482,-140Z" fill="#161616" stroke="#161616" stroke-width="1.51"/><path d="M2610,519L2425,-111L2162,168Z" fill="#141414" stroke="#141414" stroke-width="1.51"/><path d="M-38,1264L20,1675L640,1546Z" fill="#141414" stroke="#141414" stroke-width="1.51"/><path d="M640,1546L20,1675L1181,1686Z" fill="#141414" stroke="#141414" stroke-width="1.51"/><path d="M1181,1686L-669,1808L1644,1733Z" fill="#131313" stroke="#131313" stroke-width="1.51"/><path d="M2202,604L2610,519L2162,168Z" fill="#171717" stroke="#171717" stroke-width="1.51"/><path d="M2794,650L2610,519L2794,1048Z" fill="#161616" stroke="#161616" stroke-width="1.51"/><path d="M2610,519L2202,604L2794,1048Z" fill="#181818" stroke="#181818" stroke-width="1.51"/><path d="M-38,1264L-240,1667L20,1675Z" fill="#121212" stroke="#121212" stroke-width="1.51"/><path d="M-160,190L-450,930L322,652Z" fill="#0b0b0b" stroke="#0b0b0b" stroke-width="1.51"/><path d="M2521,-456L2023,-696L2211,-194Z" fill="#121212" stroke="#121212" stroke-width="1.51"/><path d="M-450,930L-240,1667L-38,1264Z" fill="#161616" stroke="#161616" stroke-width="1.51"/><path d="M-639,428L-554,926L-450,930Z" fill="#0e0e0e" stroke="#0e0e0e" stroke-width="1.51"/><path d="M1644,1733L2231,1772L1951,1125Z" fill="#212121" stroke="#212121" stroke-width="1.51"/><path d="M2597,1823L2231,1772L1644,1733Z" fill="#1b1b1b" stroke="#1b1b1b" stroke-width="1.51"/><path d="M-669,1808L2597,1823L1644,1733Z" fill="#171717" stroke="#171717" stroke-width="1.51"/><path d="M-554,926L-240,1667L-450,930Z" fill="#151515" stroke="#151515" stroke-width="1.51"/><path d="M-160,190L-639,428L-450,930Z" fill="#090909" stroke="#090909" stroke-width="1.51"/><path d="M-388,-342L-160,190L167,-280Z" fill="#000100" stroke="#000100" stroke-width="1.51"/><path d="M-24,-890L-388,-342L167,-280Z" fill="#000000" stroke="#000000" stroke-width="1.51"/><path d="M2610,519L2794,650L2425,-111Z" fill="#131313" stroke="#131313" stroke-width="1.51"/><path d="M2794,1048L2202,604L1951,1125Z" fill="#1c1c1c" stroke="#1c1c1c" stroke-width="1.51"/><path d="M2425,-111L2521,-456L2211,-194Z" fill="#111111" stroke="#111111" stroke-width="1.51"/><path d="M2794,650L2521,-456L2425,-111Z" fill="#101010" stroke="#101010" stroke-width="1.51"/><path d="M2231,1772L2794,1048L1951,1125Z" fill="#202020" stroke="#202020" stroke-width="1.51"/><path d="M1522,-834L-24,-890L544,-634Z" fill="#070707" stroke="#070707" stroke-width="1.51"/><path d="M305,-599L-24,-890L167,-280Z" fill="#010201" stroke="#010201" stroke-width="1.51"/><path d="M2231,1772L2597,1823L2794,1048Z" fill="#1a1a1a" stroke="#1a1a1a" stroke-width="1.51"/><path d="M-669,1808L1181,1686L20,1675Z" fill="#101010" stroke="#101010" stroke-width="1.51"/><path d="M-939,-348L-864,1091L-639,428Z" fill="#070707" stroke="#070707" stroke-width="1.51"/><path d="M-639,428L-864,1091L-554,926Z" fill="#0f0f0f" stroke="#0f0f0f" stroke-width="1.51"/><path d="M-554,926L-864,1091L-240,1667Z" fill="#161616" stroke="#161616" stroke-width="1.51"/><path d="M-864,1091L-669,1808L-240,1667Z" fill="#121212" stroke="#121212" stroke-width="1.51"/><path d="M-240,1667L-669,1808L20,1675Z" fill="#0f0f0f" stroke="#0f0f0f" stroke-width="1.51"/><path d="M-388,-342L-939,-348L-639,428Z" fill="#010101" stroke="#010101" stroke-width="1.51"/><path d="M-24,-890L-718,-719L-388,-342Z" fill="#000000" stroke="#000000" stroke-width="1.51"/><path d="M-718,-719L-939,-348L-388,-342Z" fill="#000000" stroke="#000000" stroke-width="1.51"/></svg>