<svg xmlns="http://www.w3.org/2000/svg" width="1920" height="1080"><path d="M1079,627L1130,583L867,500Z" fill="#151b1b" stroke="#151b1b" stroke-width="1.51"/><path d="M1130,583L1183,426L867,500Z" fill="#161c1b" stroke="#161c1b" stroke-width="1.51"/><path d="M1183,426L1034,240L867,500Z" fill="#181c1c" stroke="#181c1c" stroke-width="1.51"/><path d="M1034,240L713,477L867,500Z" fill="#1a1e1d" stroke="#1a1e1d" stroke-width="1.51"/><path d="M709,722L1072,834L1079,627Z" fill="#141a1a" stroke="#141a1a" stroke-width="1.51"/><path d="M709,722L1079,627L867,500Z" fill="#161c1b" stroke="#161c1b" stroke-width="1.51"/><path d="M1079,627L1072,834L1130,583Z" fill="#131a19" stroke="#131a19" stroke-width="1.51"/><path d="M1130,583L1496,479L1183,426Z" fill="#131a19" stroke="#131a19" stroke-width="1.51"/><path d="M713,477L709,722L867,500Z" fill="#181c1c" stroke="#181c1c" stroke-width="1.51"/><path d="M1072,834L1173,942L1130,583Z" fill="#101918" stroke="#101918" stroke-width="1.51"/><path d="M1057,1105L1173,942L1072,834Z" fill="#101d1b" stroke="#101d1b" stroke-width="1.51"/><path d="M1183,426L1341,82L1034,240Z" fill="#191d1d" stroke="#191d1d" stroke-width="1.51"/><path d="M1495,703L1496,479L1130,583Z" fill="#101919" stroke="#101919" stroke-width="1.51"/><path d="M1173,942L1495,703L1130,583Z" fill="#0f1918" stroke="#0f1918" stroke-width="1.51"/><path d="M1496,479L1341,82L1183,426Z" fill="#151b1b" stroke="#151b1b" stroke-width="1.51"/><path d="M713,477L426,581L709,722Z" fill="#1a1d1d" stroke="#1a1d1d" stroke-width="1.51"/><path d="M577,31L499,331L713,477Z" fill="#1f2020" stroke="#1f2020" stroke-width="1.51"/><path d="M577,31L713,477L1034,240Z" fill="#1d1f1f" stroke="#1d1f1f" stroke-width="1.51"/><path d="M709,722L748,1002L1072,834Z" fill="#131a19" stroke="#131a19" stroke-width="1.51"/><path d="M417,924L748,1002L709,722Z" fill="#151b1a" stroke="#151b1a" stroke-width="1.51"/><path d="M499,331L426,581L713,477Z" fill="#1c1f1f" stroke="#1c1f1f" stroke-width="1.51"/><path d="M748,1002L1057,1105L1072,834Z" fill="#13201d" stroke="#13201d" stroke-width="1.51"/><path d="M1566,1007L1704,717L1495,703Z" fill="#0e1f1c" stroke="#0e1f1c" stroke-width="1.51"/><path d="M686,-91L577,31L1034,240Z" fill="#1d1f1e" stroke="#1d1f1e" stroke-width="1.51"/><path d="M499,331L262,285L426,581Z" fill="#1e1f1f" stroke="#1e1f1f" stroke-width="1.51"/><path d="M577,31L435,178L499,331Z" fill="#222222" stroke="#222222" stroke-width="1.51"/><path d="M64,37L262,285L435,178Z" fill="#202020" stroke="#202020" stroke-width="1.51"/><path d="M979,-237L686,-91L1034,240Z" fill="#1b1d1c" stroke="#1b1d1c" stroke-width="1.51"/><path d="M1341,82L1237,-153L1034,240Z" fill="#181c1b" stroke="#181c1b" stroke-width="1.51"/><path d="M1495,703L1704,717L1496,479Z" fill="#111e1d" stroke="#111e1d" stroke-width="1.51"/><path d="M1496,479L1605,45L1341,82Z" fill="#171d1d" stroke="#171d1d" stroke-width="1.51"/><path d="M1341,82L1418,-239L1237,-153Z" fill="#141919" stroke="#141919" stroke-width="1.51"/><path d="M1566,1007L1495,703L1173,942Z" fill="#091716" stroke="#091716" stroke-width="1.51"/><path d="M748,1002L696,1194L1057,1105Z" fill="#182a26" stroke="#182a26" stroke-width="1.51"/><path d="M426,581L417,924L709,722Z" fill="#181d1c" stroke="#181d1c" stroke-width="1.51"/><path d="M61,602L417,924L426,581Z" fill="#181c1c" stroke="#181c1c" stroke-width="1.51"/><path d="M1237,-153L979,-237L1034,240Z" fill="#181c1b" stroke="#181c1b" stroke-width="1.51"/><path d="M1805,124L1605,45L1496,479Z" fill="#1a2623" stroke="#1a2623" stroke-width="1.51"/><path d="M1331,1279L1566,1007L1173,942Z" fill="#102521" stroke="#102521" stroke-width="1.51"/><path d="M417,924L696,1194L748,1002Z" fill="#192724" stroke="#192724" stroke-width="1.51"/><path d="M1057,1105L1331,1279L1173,942Z" fill="#132925" stroke="#132925" stroke-width="1.51"/><path d="M435,178L262,285L499,331Z" fill="#202120" stroke="#202120" stroke-width="1.51"/><path d="M503,-224L435,178L577,31Z" fill="#1f201f" stroke="#1f201f" stroke-width="1.51"/><path d="M1704,717L1801,522L1496,479Z" fill="#142522" stroke="#142522" stroke-width="1.51"/><path d="M1992,666L1801,522L1704,717Z" fill="#152e2a" stroke="#152e2a" stroke-width="1.51"/><path d="M686,-91L503,-224L577,31Z" fill="#1d1e1e" stroke="#1d1e1e" stroke-width="1.51"/><path d="M979,-237L761,-304L686,-91Z" fill="#1a1b1b" stroke="#1a1b1b" stroke-width="1.51"/><path d="M1605,45L1418,-239L1341,82Z" fill="#141919" stroke="#141919" stroke-width="1.51"/><path d="M1237,-153L1283,-375L979,-237Z" fill="#151919" stroke="#151919" stroke-width="1.51"/><path d="M979,-237L894,-509L761,-304Z" fill="#171a19" stroke="#171a19" stroke-width="1.51"/><path d="M1275,1473L1331,1279L1057,1105Z" fill="#163830" stroke="#163830" stroke-width="1.51"/><path d="M1801,522L1805,124L1496,479Z" fill="#192925" stroke="#192925" stroke-width="1.51"/><path d="M1605,45L1683,-83L1418,-239Z" fill="#16201e" stroke="#16201e" stroke-width="1.51"/><path d="M761,-304L503,-224L686,-91Z" fill="#1b1c1c" stroke="#1b1c1c" stroke-width="1.51"/><path d="M1805,124L1683,-83L1605,45Z" fill="#1a2825" stroke="#1a2825" stroke-width="1.51"/><path d="M1801,522L1941,203L1805,124Z" fill="#1d332e" stroke="#1d332e" stroke-width="1.51"/><path d="M1566,1007L1824,891L1704,717Z" fill="#0f2421" stroke="#0f2421" stroke-width="1.51"/><path d="M1608,1207L1824,891L1566,1007Z" fill="#102d28" stroke="#102d28" stroke-width="1.51"/><path d="M1540,-304L1283,-375L1418,-239Z" fill="#111717" stroke="#111717" stroke-width="1.51"/><path d="M1418,-239L1283,-375L1237,-153Z" fill="#131818" stroke="#131818" stroke-width="1.51"/><path d="M1331,1279L1608,1207L1566,1007Z" fill="#112e29" stroke="#112e29" stroke-width="1.51"/><path d="M262,285L61,602L426,581Z" fill="#1b1e1d" stroke="#1b1e1d" stroke-width="1.51"/><path d="M337,1257L541,1378L696,1194Z" fill="#213b35" stroke="#213b35" stroke-width="1.51"/><path d="M-109,573L61,602L-118,451Z" fill="#181b1a" stroke="#181b1a" stroke-width="1.51"/><path d="M1683,-83L1540,-304L1418,-239Z" fill="#141d1b" stroke="#141d1b" stroke-width="1.51"/><path d="M1805,124L2016,-98L1683,-83Z" fill="#1c302c" stroke="#1c302c" stroke-width="1.51"/><path d="M1683,-83L1668,-441L1540,-304Z" fill="#16211f" stroke="#16211f" stroke-width="1.51"/><path d="M2121,301L1941,203L1801,522Z" fill="#1e3933" stroke="#1e3933" stroke-width="1.51"/><path d="M1824,891L1992,666L1704,717Z" fill="#132e29" stroke="#132e29" stroke-width="1.51"/><path d="M2118,862L1992,666L1824,891Z" fill="#14362f" stroke="#14362f" stroke-width="1.51"/><path d="M924,1600L1275,1473L1057,1105Z" fill="#194139" stroke="#194139" stroke-width="1.51"/><path d="M337,1257L696,1194L417,924Z" fill="#1d2e2a" stroke="#1d2e2a" stroke-width="1.51"/><path d="M924,1600L1057,1105L696,1194Z" fill="#1b3b34" stroke="#1b3b34" stroke-width="1.51"/><path d="M1331,1279L1514,1522L1608,1207Z" fill="#123c34" stroke="#123c34" stroke-width="1.51"/><path d="M1668,-441L894,-509L1283,-375Z" fill="#111616" stroke="#111616" stroke-width="1.51"/><path d="M1283,-375L894,-509L979,-237Z" fill="#151818" stroke="#151818" stroke-width="1.51"/><path d="M761,-304L532,-467L503,-224Z" fill="#1a1b1b" stroke="#1a1b1b" stroke-width="1.51"/><path d="M212,1146L337,1257L417,924Z" fill="#1c2c28" stroke="#1c2c28" stroke-width="1.51"/><path d="M61,602L138,1037L417,924Z" fill="#151a1a" stroke="#151a1a" stroke-width="1.51"/><path d="M138,1037L212,1146L417,924Z" fill="#192522" stroke="#192522" stroke-width="1.51"/><path d="M158,-240L64,37L435,178Z" fill="#1e1e1e" stroke="#1e1e1e" stroke-width="1.51"/><path d="M158,-240L435,178L503,-224Z" fill="#1e1e1e" stroke="#1e1e1e" stroke-width="1.51"/><path d="M894,-509L532,-467L761,-304Z" fill="#181a1a" stroke="#181a1a" stroke-width="1.51"/><path d="M664,1563L924,1600L696,1194Z" fill="#204940" stroke="#204940" stroke-width="1.51"/><path d="M1764,1453L1771,1315L1608,1207Z" fill="#134a3f" stroke="#134a3f" stroke-width="1.51"/><path d="M1608,1207L1771,1315L1824,891Z" fill="#123b32" stroke="#123b32" stroke-width="1.51"/><path d="M1514,1522L1331,1279L1275,1473Z" fill="#144239" stroke="#144239" stroke-width="1.51"/><path d="M541,1378L664,1563L696,1194Z" fill="#21443b" stroke="#21443b" stroke-width="1.51"/><path d="M456,1630L664,1563L541,1378Z" fill="#255247" stroke="#255247" stroke-width="1.51"/><path d="M757,1684L664,1563L456,1630Z" fill="#255a4d" stroke="#255a4d" stroke-width="1.51"/><path d="M-118,451L61,602L262,285Z" fill="#1a1c1c" stroke="#1a1c1c" stroke-width="1.51"/><path d="M61,602L-127,834L138,1037Z" fill="#141919" stroke="#141919" stroke-width="1.51"/><path d="M1941,-472L1668,-441L1683,-83Z" fill="#172824" stroke="#172824" stroke-width="1.51"/><path d="M1992,666L2121,301L1801,522Z" fill="#1b3932" stroke="#1b3932" stroke-width="1.51"/><path d="M2245,242L2121,301L2380,359Z" fill="#234d43" stroke="#234d43" stroke-width="1.51"/><path d="M152,-397L158,-240L503,-224Z" fill="#1b1b1b" stroke="#1b1b1b" stroke-width="1.51"/><path d="M64,37L-118,451L262,285Z" fill="#1d1e1e" stroke="#1d1e1e" stroke-width="1.51"/><path d="M-225,60L-118,451L64,37Z" fill="#1d1d1d" stroke="#1d1d1d" stroke-width="1.51"/><path d="M1475,1641L1514,1522L1275,1473Z" fill="#144d42" stroke="#144d42" stroke-width="1.51"/><path d="M1540,-304L1668,-441L1283,-375Z" fill="#111817" stroke="#111817" stroke-width="1.51"/><path d="M2016,-98L1805,124L1941,203Z" fill="#1f3731" stroke="#1f3731" stroke-width="1.51"/><path d="M2046,1210L2118,862L1824,891Z" fill="#123e36" stroke="#123e36" stroke-width="1.51"/><path d="M2245,242L2016,-98L1941,203Z" fill="#224139" stroke="#224139" stroke-width="1.51"/><path d="M924,1600L1256,1697L1275,1473Z" fill="#1b5447" stroke="#1b5447" stroke-width="1.51"/><path d="M757,1684L935,1674L924,1600Z" fill="#20584b" stroke="#20584b" stroke-width="1.51"/><path d="M-109,573L-127,834L61,602Z" fill="#161a19" stroke="#161a19" stroke-width="1.51"/><path d="M138,1037L-47,1092L212,1146Z" fill="#192925" stroke="#192925" stroke-width="1.51"/><path d="M456,1630L541,1378L337,1257Z" fill="#254940" stroke="#254940" stroke-width="1.51"/><path d="M-416,693L-127,834L-109,573Z" fill="#141818" stroke="#141818" stroke-width="1.51"/><path d="M170,1378L337,1257L212,1146Z" fill="#1f3832" stroke="#1f3832" stroke-width="1.51"/><path d="M664,1563L757,1684L924,1600Z" fill="#23584c" stroke="#23584c" stroke-width="1.51"/><path d="M-127,834L-47,1092L138,1037Z" fill="#151f1d" stroke="#151f1d" stroke-width="1.51"/><path d="M1771,1315L2046,1210L1824,891Z" fill="#13443a" stroke="#13443a" stroke-width="1.51"/><path d="M1514,1522L1764,1453L1608,1207Z" fill="#144a40" stroke="#144a40" stroke-width="1.51"/><path d="M-47,1092L170,1378L212,1146Z" fill="#1c322d" stroke="#1c322d" stroke-width="1.51"/><path d="M757,1684L1256,1697L935,1674Z" fill="#1f574a" stroke="#1f574a" stroke-width="1.51"/><path d="M935,1674L1256,1697L924,1600Z" fill="#1e5749" stroke="#1e5749" stroke-width="1.51"/><path d="M1514,1522L1768,1663L1764,1453Z" fill="#145d4e" stroke="#145d4e" stroke-width="1.51"/><path d="M1256,1697L1475,1641L1275,1473Z" fill="#175347" stroke="#175347" stroke-width="1.51"/><path d="M158,-240L-61,-195L64,37Z" fill="#1b1b1b" stroke="#1b1b1b" stroke-width="1.51"/><path d="M532,-467L152,-397L503,-224Z" fill="#1b1b1b" stroke="#1b1b1b" stroke-width="1.51"/><path d="M2008,1543L2046,1210L1771,1315Z" fill="#145c4e" stroke="#145c4e" stroke-width="1.51"/><path d="M2121,301L2245,242L1941,203Z" fill="#22443b" stroke="#22443b" stroke-width="1.51"/><path d="M2267,767L2121,301L1992,666Z" fill="#1b423a" stroke="#1b423a" stroke-width="1.51"/><path d="M170,1378L456,1630L337,1257Z" fill="#24483f" stroke="#24483f" stroke-width="1.51"/><path d="M152,-397L-61,-195L158,-240Z" fill="#1a1a1a" stroke="#1a1a1a" stroke-width="1.51"/><path d="M2118,862L2267,767L1992,666Z" fill="#164037" stroke="#164037" stroke-width="1.51"/><path d="M2245,1027L2267,767L2118,862Z" fill="#14443a" stroke="#14443a" stroke-width="1.51"/><path d="M-61,-195L-225,60L64,37Z" fill="#1b1b1b" stroke="#1b1b1b" stroke-width="1.51"/><path d="M-427,382L-416,693L-109,573Z" fill="#161918" stroke="#161918" stroke-width="1.51"/><path d="M2046,1210L2245,1027L2118,862Z" fill="#144c41" stroke="#144c41" stroke-width="1.51"/><path d="M1668,-441L1941,-472L894,-509Z" fill="#101717" stroke="#101717" stroke-width="1.51"/><path d="M2016,-98L1941,-472L1683,-83Z" fill="#1b312c" stroke="#1b312c" stroke-width="1.51"/><path d="M2353,-338L1941,-472L2016,-98Z" fill="#1d3e36" stroke="#1d3e36" stroke-width="1.51"/><path d="M2245,242L2406,-73L2016,-98Z" fill="#234a40" stroke="#234a40" stroke-width="1.51"/><path d="M2267,767L2380,359L2121,301Z" fill="#1e4b41" stroke="#1e4b41" stroke-width="1.51"/><path d="M2245,1027L2380,359L2267,767Z" fill="#194c41" stroke="#194c41" stroke-width="1.51"/><path d="M2046,1210L2198,1272L2245,1027Z" fill="#145a4c" stroke="#145a4c" stroke-width="1.51"/><path d="M2008,1543L2198,1272L2046,1210Z" fill="#136454" stroke="#136454" stroke-width="1.51"/><path d="M1475,1641L1768,1663L1514,1522Z" fill="#135c4e" stroke="#135c4e" stroke-width="1.51"/><path d="M1256,1697L1768,1663L1475,1641Z" fill="#135649" stroke="#135649" stroke-width="1.51"/><path d="M2245,1027L2278,1658L2380,359Z" fill="#145548" stroke="#145548" stroke-width="1.51"/><path d="M2008,1543L1771,1315L1764,1453Z" fill="#145d4f" stroke="#145d4f" stroke-width="1.51"/><path d="M152,-397L-135,-356L-61,-195Z" fill="#181818" stroke="#181818" stroke-width="1.51"/><path d="M-61,-195L-272,-208L-225,60Z" fill="#191919" stroke="#191919" stroke-width="1.51"/><path d="M-327,-469L-135,-356L152,-397Z" fill="#161616" stroke="#161616" stroke-width="1.51"/><path d="M-209,1550L74,1781L170,1378Z" fill="#235246" stroke="#235246" stroke-width="1.51"/><path d="M-127,834L-497,882L-47,1092Z" fill="#121a18" stroke="#121a18" stroke-width="1.51"/><path d="M-427,382L-109,573L-118,451Z" fill="#181a1a" stroke="#181a1a" stroke-width="1.51"/><path d="M-427,382L-118,451L-225,60Z" fill="#1a1b1b" stroke="#1a1b1b" stroke-width="1.51"/><path d="M1768,1663L2008,1543L1764,1453Z" fill="#136858" stroke="#136858" stroke-width="1.51"/><path d="M-467,64L-427,382L-225,60Z" fill="#1b1b1b" stroke="#1b1b1b" stroke-width="1.51"/><path d="M-135,-356L-272,-208L-61,-195Z" fill="#181818" stroke="#181818" stroke-width="1.51"/><path d="M2380,359L2406,-73L2245,242Z" fill="#275549" stroke="#275549" stroke-width="1.51"/><path d="M2008,1543L2236,1420L2198,1272Z" fill="#12705d" stroke="#12705d" stroke-width="1.51"/><path d="M2198,1272L2236,1420L2245,1027Z" fill="#136555" stroke="#136555" stroke-width="1.51"/><path d="M-272,-208L-467,64L-225,60Z" fill="#191919" stroke="#191919" stroke-width="1.51"/><path d="M-427,382L-497,882L-416,693Z" fill="#131616" stroke="#131616" stroke-width="1.51"/><path d="M-416,693L-497,882L-127,834Z" fill="#101616" stroke="#101616" stroke-width="1.51"/><path d="M170,1378L74,1781L456,1630Z" fill="#26574a" stroke="#26574a" stroke-width="1.51"/><path d="M-467,64L-497,882L-427,382Z" fill="#161818" stroke="#161818" stroke-width="1.51"/><path d="M2406,-73L2353,-338L2016,-98Z" fill="#214a40" stroke="#214a40" stroke-width="1.51"/><path d="M-209,1550L170,1378L-47,1092Z" fill="#1e3d35" stroke="#1e3d35" stroke-width="1.51"/><path d="M456,1630L74,1781L757,1684Z" fill="#285a4e" stroke="#285a4e" stroke-width="1.51"/><path d="M757,1684L74,1781L1256,1697Z" fill="#25594c" stroke="#25594c" stroke-width="1.51"/><path d="M1256,1697L2051,1778L1768,1663Z" fill="#136454" stroke="#136454" stroke-width="1.51"/><path d="M-371,1442L-209,1550L-47,1092Z" fill="#1d3d35" stroke="#1d3d35" stroke-width="1.51"/><path d="M-497,882L-426,1297L-47,1092Z" fill="#162522" stroke="#162522" stroke-width="1.51"/><path d="M2008,1543L2278,1658L2236,1420Z" fill="#0e7f69" stroke="#0e7f69" stroke-width="1.51"/><path d="M1768,1663L2051,1778L2008,1543Z" fill="#117662" stroke="#117662" stroke-width="1.51"/><path d="M74,1781L2051,1778L1256,1697Z" fill="#1b5649" stroke="#1b5649" stroke-width="1.51"/><path d="M-135,-356L-327,-469L-272,-208Z" fill="#161616" stroke="#161616" stroke-width="1.51"/><path d="M-272,-208L-327,-469L-467,64Z" fill="#171717" stroke="#171717" stroke-width="1.51"/><path d="M532,-467L-327,-469L152,-397Z" fill="#181818" stroke="#181818" stroke-width="1.51"/><path d="M894,-509L-327,-469L532,-467Z" fill="#1a1a1a" stroke="#1a1a1a" stroke-width="1.51"/><path d="M-426,1297L-371,1442L-47,1092Z" fill="#1b352f" stroke="#1b352f" stroke-width="1.51"/><path d="M-209,1550L-79,1775L74,1781Z" fill="#235649" stroke="#235649" stroke-width="1.51"/><path d="M-490,1862L-79,1775L-209,1550Z" fill="#215447" stroke="#215447" stroke-width="1.51"/><path d="M2051,1778L2278,1658L2008,1543Z" fill="#0d826c" stroke="#0d826c" stroke-width="1.51"/><path d="M2236,1420L2278,1658L2245,1027Z" fill="#117360" stroke="#117360" stroke-width="1.51"/><path d="M-371,1442L-490,1862L-209,1550Z" fill="#205346" stroke="#205346" stroke-width="1.51"/><path d="M-79,1775L-490,1862L74,1781Z" fill="#225448" stroke="#225448" stroke-width="1.51"/><path d="M74,1781L-490,1862L2051,1778Z" fill="#275a4e" stroke="#275a4e" stroke-width="1.51"/><path d="M-426,1297L-490,1862L-371,1442Z" fill="#1e4a40" stroke="#1e4a40" stroke-width="1.51"/><path d="M-497,882L-490,1862L-426,1297Z" fill="#1a3932" stroke="#1a3932" stroke-width="1.51"/></svg>